<svg id="Layer_1" data-name="Layer 1" xmlns="http://www.w3.org/2000/svg" xmlns:xlink="http://www.w3.org/1999/xlink" viewBox="0 0 1370 770"><defs><style>.cls-1{fill:#58595b;}.cls-2{fill:url(#radial-gradient);}.cls-3{fill:url(#linear-gradient);}.cls-4{fill:url(#radial-gradient-2);}.cls-5{fill:url(#radial-gradient-3);}.cls-6{font-size:226.76px;font-family:Mistuki1PERSONALUSE, Mistuki 1 PERSONAL USE;letter-spacing:0.02em;}.cls-15,.cls-19,.cls-6{fill:#fff;}.cls-12,.cls-7{fill:#00aeef;}.cls-10,.cls-7,.cls-8,.cls-9{font-size:114.98px;}.cls-7,.cls-8,.cls-9{letter-spacing:0.03em;}.cls-11,.cls-8{fill:#ec008c;}.cls-13,.cls-9{fill:#fff200;}.cls-10,.cls-14{fill:#00a651;}.cls-10{letter-spacing:0.02em;}.cls-11,.cls-12,.cls-13,.cls-14{font-size:127.75px;}.cls-11,.cls-13{letter-spacing:0.02em;}.cls-12,.cls-14{letter-spacing:0.03em;}.cls-15{font-size:43.75px;letter-spacing:0.03em;}.cls-15,.cls-19{font-family:URWAlcuinT-Regu, URWAlcuinT;}.cls-16{letter-spacing:0.05em;}.cls-17{letter-spacing:0.08em;}.cls-18{letter-spacing:0.03em;}.cls-19,.cls-20{font-size:15.22px;}.cls-19{letter-spacing:0.05em;}.cls-20{font-family:ArialMT, Arial;letter-spacing:-0.06em;}.cls-21{letter-spacing:0.05em;}</style><radialGradient id="radial-gradient" cx="680.29" cy="262.72" r="177.14" gradientTransform="translate(1 26.27) scale(1 0.9)" gradientUnits="userSpaceOnUse"><stop offset="0" stop-color="#fff"/><stop offset="0" stop-color="#eae9e9"/><stop offset="0" stop-color="#fff"/><stop offset="1" stop-color="#a97c50"/></radialGradient><linearGradient id="linear-gradient" x1="426.86" y1="271.74" x2="928.82" y2="271.74" gradientUnits="userSpaceOnUse"><stop offset="0" stop-color="#fff"/><stop offset="0" stop-color="#eae9e9"/><stop offset="0.04" stop-color="#231f20"/><stop offset="1" stop-color="#231f20"/></linearGradient><radialGradient id="radial-gradient-2" cx="866.29" cy="288.4" r="35.25" gradientUnits="userSpaceOnUse"><stop offset="0" stop-color="#fff"/><stop offset="0" stop-color="#eae9e9"/><stop offset="0" stop-color="#fff"/><stop offset="0.86" stop-color="#ecedee"/><stop offset="0.99" stop-color="#e6e7e8"/></radialGradient><radialGradient id="radial-gradient-3" cx="489.77" cy="288.64" r="35.51" xlink:href="#radial-gradient-2"/></defs><title>Color Nerds Logo1 landscape</title><rect class="cls-1" width="1370" height="770"/><ellipse class="cls-2" cx="681.29" cy="262.72" rx="177.55" ry="176.72"/><path d="M841.67,178.93H775.85a11.27,11.27,0,0,1-11.27-11.27h0a11.27,11.27,0,0,1,11.27-11.27h65.82a11.27,11.27,0,0,1,11.27,11.27h0A11.27,11.27,0,0,1,841.67,178.93Z" transform="translate(1)"/><path d="M514,178.93h65.82a11.27,11.27,0,0,0,11.27-11.27h0a11.27,11.27,0,0,0-11.27-11.27H514a11.27,11.27,0,0,0-11.27,11.27h0A11.27,11.27,0,0,0,514,178.93Z" transform="translate(1)"/><ellipse cx="827.97" cy="221.64" rx="19.81" ry="20.04"/><ellipse cx="585.28" cy="220.04" rx="19.81" ry="20.04"/><path class="cls-3" d="M927.4,195.5c-3.25-1.88-40.77-9-68.47-11.1-15.76-1.2-55.08-.3-85.87,3.48-15.81,1.94-70.27,17.16-75.41,18.45S685,205,677.84,205.16c-7.18-.13-14.68,2.45-19.82,1.16s-59.6-16.51-75.41-18.45c-30.78-3.78-70.11-4.68-85.87-3.48-27.7,2.11-65.22,9.22-68.47,11.1s.12,35.23.12,35.23,7.18,2.11,10,3.94a14.84,14.84,0,0,1,6.43,12.65c-.17,6.36,6.77,96,69.31,110.44,15,3.47,49.43.91,49.43.91S611,354.13,633.34,318c12.66-20.44,22.26-38.9,30-71.43.9-3.82,6.48-7.64,14.54-7.87,8.06.23,13.63,4.06,14.54,7.87,7.7,32.53,17.3,51,30,71.43,22.38,36.14,69.78,40.68,69.78,40.68s34.42,2.56,49.43-.91c62.54-14.46,69.48-104.08,69.31-110.44a14.84,14.84,0,0,1,6.43-12.65c2.83-1.82,10-3.94,10-3.94S930.66,197.39,927.4,195.5ZM640,265.61c-1.76,5.83-6.62,28.14-23.26,50.95-7.57,10.38-20.76,24.95-59.51,30.06a158.61,158.61,0,0,1-36,.12,55.89,55.89,0,0,1-26-9.62c-21.33-15.36-29.06-41.26-30.39-51.33-7.69-58.29,2.34-61.67,7.84-67.69,21.73-23.78,145.49-23.43,167.13,14.85C643.13,238.7,641.75,259.77,640,265.61Zm250.78,20.19c-1.33,10.06-9.06,36-30.39,51.33a55.9,55.9,0,0,1-26,9.62,158.61,158.61,0,0,1-36-.12c-38.75-5.11-51.93-19.67-59.51-30.06-16.64-22.81-21.49-45.11-23.26-50.95s-3.14-26.91.11-32.66c21.64-38.28,145.4-38.63,167.13-14.85C888.43,224.13,898.45,227.51,890.77,285.79Z" transform="translate(1)"/><path class="cls-4" d="M882.12,284.69c-2,8.91-8.15,32.34-27.33,46.15-1.05.76-2.19,1.5-3.41,2.2-3.66,2.12-5,2.44-2-.58,10.92-1.3,38.17-33.68,26.91-86.71,0-4.4,6.42-5,7.21-.65C885.34,255.33,885.68,268.74,882.12,284.69Z" transform="translate(1)"/><path class="cls-5" d="M472.2,245.1c.79-4.33,7.19-3.75,7.21.65-11.07,53.59,18.58,85.75,28,87.59,3,3,.58,1.83-3.08-.29-1.22-.71-2.36-1.45-3.41-2.2-19.18-13.81-25.34-37.24-27.33-46.15C470,268.74,470.34,255.33,472.2,245.1Z" transform="translate(1)"/><text class="cls-6" transform="translate(352.86 533.48)">C<tspan class="cls-7" x="151.47" y="0">o</tspan><tspan class="cls-8" x="187" y="0">l</tspan><tspan class="cls-9" x="212.99" y="0">o</tspan><tspan class="cls-10" x="248.51" y="0">r</tspan></text><text class="cls-6" transform="translate(639.14 533.48)">N<tspan class="cls-11" x="214.74" y="0">e</tspan><tspan class="cls-12" x="255.37" y="0">r</tspan><tspan class="cls-13" x="288.2" y="0">d</tspan><tspan class="cls-14" x="338.53" y="0">s</tspan></text><text class="cls-15" transform="translate(379.02 662.59)">W<tspan class="cls-16" x="43.29" y="0">eb Design &amp; D</tspan><tspan class="cls-17" x="356.05" y="0">e</tspan><tspan class="cls-18" x="381.05" y="0">v</tspan><tspan class="cls-16" x="404.24" y="0">elopment</tspan></text><text class="cls-19" transform="translate(1009.95 488.74)">TM</text><image width="900" height="900" transform="translate(1170 730) scale(0.02)" xlink:href="C:\Users\toned_000\Downloads\copyright-symbol.png"/><text class="cls-20" transform="translate(1195.5 744.85)">T<tspan class="cls-21" x="8.37" y="0">ony Kelly 2015</tspan></text></svg>