<svg id="Layer_1" data-name="Layer 1" xmlns="http://www.w3.org/2000/svg" xmlns:xlink="http://www.w3.org/1999/xlink" viewBox="0 0 958.43 952.79"><defs><style>.cls-1,.cls-10,.cls-11,.cls-12,.cls-13,.cls-14,.cls-15,.cls-16,.cls-17,.cls-19,.cls-2,.cls-20,.cls-21,.cls-22,.cls-23,.cls-24,.cls-25,.cls-27,.cls-28,.cls-29,.cls-3,.cls-30,.cls-31,.cls-32,.cls-33,.cls-35,.cls-36,.cls-37,.cls-38,.cls-4,.cls-40,.cls-41,.cls-42,.cls-43,.cls-44,.cls-45,.cls-46,.cls-47,.cls-48,.cls-49,.cls-5,.cls-50,.cls-51,.cls-52,.cls-53,.cls-54,.cls-55,.cls-6,.cls-7,.cls-9{stroke:#000;stroke-miterlimit:10;}.cls-1,.cls-6{stroke-width:4px;}.cls-1{fill:url(#linear-gradient);}.cls-2,.cls-28{fill:#f7931e;}.cls-2{stroke-width:5px;}.cls-10,.cls-12,.cls-13,.cls-17,.cls-20,.cls-21,.cls-25,.cls-27,.cls-28,.cls-29,.cls-3,.cls-32,.cls-33,.cls-38,.cls-4,.cls-40,.cls-41,.cls-44,.cls-49,.cls-50,.cls-54,.cls-55,.cls-7{stroke-width:2px;}.cls-3{fill:url(#linear-gradient-2);}.cls-4{fill:url(#linear-gradient-3);}.cls-5{fill:url(#linear-gradient-4);}.cls-6{fill:url(#linear-gradient-5);}.cls-7{fill:url(#linear-gradient-6);}.cls-8{fill:url(#Summer);}.cls-9{fill:none;}.cls-11,.cls-16,.cls-19,.cls-24{stroke-width:1.5px;}.cls-11{fill:url(#linear-gradient-7);}.cls-12{fill:#d9e021;}.cls-13{fill:url(#linear-gradient-8);}.cls-14{fill:url(#linear-gradient-9);}.cls-15{fill:url(#linear-gradient-10);}.cls-16{fill:url(#linear-gradient-11);}.cls-17{fill:url(#linear-gradient-12);}.cls-18{fill:url(#radial-gradient);}.cls-19{fill:url(#linear-gradient-13);}.cls-20{fill:url(#linear-gradient-14);}.cls-21{fill:url(#linear-gradient-15);}.cls-22{fill:url(#linear-gradient-16);}.cls-23{fill:url(#linear-gradient-17);}.cls-24{fill:url(#linear-gradient-18);}.cls-25{fill:url(#linear-gradient-19);}.cls-26{fill:url(#radial-gradient-2);}.cls-27{fill:url(#linear-gradient-20);}.cls-29{fill:url(#linear-gradient-21);}.cls-30{fill:url(#linear-gradient-22);}.cls-31{fill:url(#linear-gradient-23);}.cls-32{fill:url(#linear-gradient-24);}.cls-33{fill:url(#linear-gradient-25);}.cls-34{fill:url(#Summer-2);}.cls-35,.cls-36,.cls-42,.cls-45,.cls-46,.cls-47,.cls-51,.cls-52{stroke-width:3.21px;}.cls-35{fill:url(#Summer-3);}.cls-36{fill:url(#Summer-4);}.cls-37{fill:url(#linear-gradient-26);}.cls-38{fill:url(#linear-gradient-27);}.cls-39{fill:#fff;}.cls-40{fill:url(#linear-gradient-28);}.cls-41{fill:url(#linear-gradient-29);}.cls-42{fill:url(#Summer-5);}.cls-43{fill:url(#linear-gradient-30);}.cls-44{fill:url(#linear-gradient-31);}.cls-45{fill:url(#Summer-6);}.cls-46{fill:url(#radial-gradient-3);}.cls-47{fill:url(#radial-gradient-4);}.cls-48{fill:url(#linear-gradient-32);}.cls-49{fill:url(#linear-gradient-33);}.cls-50{fill:url(#linear-gradient-34);}.cls-51{fill:url(#radial-gradient-5);}.cls-52{fill:url(#radial-gradient-6);}.cls-53{fill:url(#linear-gradient-35);}.cls-54{fill:url(#linear-gradient-36);}.cls-55{fill:url(#linear-gradient-37);}</style><linearGradient id="linear-gradient" x1="339.72" y1="188.56" x2="446.05" y2="188.56" gradientUnits="userSpaceOnUse"><stop offset="0" stop-color="#e6e6e6"/><stop offset="1" stop-color="#ccc"/></linearGradient><linearGradient id="linear-gradient-2" x1="421.98" y1="350.19" x2="580.88" y2="350.19" gradientUnits="userSpaceOnUse"><stop offset="0" stop-color="#16cbe2"/><stop offset="0.36" stop-color="#26afe2"/><stop offset="0.52" stop-color="#25b1e2"/><stop offset="0.67" stop-color="#24b3e2"/><stop offset="1" stop-color="#14cfe2"/></linearGradient><linearGradient id="linear-gradient-3" x1="349.35" y1="420.24" x2="654.31" y2="420.24" xlink:href="#linear-gradient"/><linearGradient id="linear-gradient-4" x1="348.95" y1="418.94" x2="654.71" y2="418.94" xlink:href="#linear-gradient"/><linearGradient id="linear-gradient-5" x1="559.21" y1="188.56" x2="665.55" y2="188.56" xlink:href="#linear-gradient"/><linearGradient id="linear-gradient-6" x1="434.66" y1="72.42" x2="570.63" y2="307.91" xlink:href="#linear-gradient-2"/><radialGradient id="Summer" cx="498.72" cy="177" r="75.9" gradientUnits="userSpaceOnUse"><stop offset="0" stop-color="#fff"/><stop offset="0.09" stop-color="#ffedd8"/><stop offset="0.21" stop-color="#ffd5a7"/><stop offset="0.33" stop-color="#ffc17d"/><stop offset="0.46" stop-color="#ffb05b"/><stop offset="0.59" stop-color="#ffa340"/><stop offset="0.72" stop-color="#ff9a2d"/><stop offset="0.86" stop-color="#ff9522"/><stop offset="1" stop-color="#ff931e"/></radialGradient><linearGradient id="linear-gradient-7" x1="84.4" y1="739.66" x2="138.29" y2="739.66" xlink:href="#linear-gradient"/><linearGradient id="linear-gradient-8" x1="126.09" y1="821.57" x2="206.61" y2="821.57" gradientUnits="userSpaceOnUse"><stop offset="0" stop-color="#009245"/><stop offset="0.36" stop-color="#006837"/><stop offset="0.52" stop-color="#006837"/><stop offset="0.67" stop-color="#006837"/><stop offset="1" stop-color="#009245"/></linearGradient><linearGradient id="linear-gradient-9" x1="89.28" y1="856.14" x2="243.83" y2="856.14" xlink:href="#linear-gradient"/><linearGradient id="linear-gradient-10" x1="89.08" y1="856.24" x2="244.03" y2="856.24" xlink:href="#linear-gradient"/><linearGradient id="linear-gradient-11" x1="195.63" y1="739.66" x2="249.52" y2="739.66" xlink:href="#linear-gradient"/><linearGradient id="linear-gradient-12" x1="132.52" y1="680.8" x2="201.42" y2="800.14" xlink:href="#linear-gradient-8"/><radialGradient id="radial-gradient" cx="164.98" cy="733.67" r="38.46" gradientUnits="userSpaceOnUse"><stop offset="0" stop-color="#fff"/><stop offset="0.08" stop-color="#f9fadb"/><stop offset="0.2" stop-color="#f1f3aa"/><stop offset="0.33" stop-color="#e9ed80"/><stop offset="0.46" stop-color="#e3e85e"/><stop offset="0.59" stop-color="#dfe543"/><stop offset="0.72" stop-color="#dce230"/><stop offset="0.86" stop-color="#dae125"/><stop offset="1" stop-color="#d9e021"/></radialGradient><linearGradient id="linear-gradient-13" x1="421.4" y1="738.66" x2="475.29" y2="738.66" xlink:href="#linear-gradient"/><linearGradient id="linear-gradient-14" x1="370.97" y1="805.97" x2="633.7" y2="805.97" xlink:href="#linear-gradient-2"/><linearGradient id="linear-gradient-15" x1="463.09" y1="820.57" x2="543.61" y2="820.57" gradientUnits="userSpaceOnUse"><stop offset="0" stop-color="#93278f"/><stop offset="0.36" stop-color="#662d91"/><stop offset="0.52" stop-color="#662d91"/><stop offset="0.67" stop-color="#662d91"/><stop offset="1" stop-color="#93278f"/></linearGradient><linearGradient id="linear-gradient-16" x1="426.28" y1="855.14" x2="580.83" y2="855.14" xlink:href="#linear-gradient"/><linearGradient id="linear-gradient-17" x1="426.08" y1="855.24" x2="581.03" y2="855.24" xlink:href="#linear-gradient"/><linearGradient id="linear-gradient-18" x1="532.63" y1="738.66" x2="586.52" y2="738.66" xlink:href="#linear-gradient"/><linearGradient id="linear-gradient-19" x1="469.52" y1="679.8" x2="538.42" y2="799.14" xlink:href="#linear-gradient-15"/><radialGradient id="radial-gradient-2" cx="501.98" cy="732.67" r="38.46" gradientUnits="userSpaceOnUse"><stop offset="0" stop-color="#fff"/><stop offset="0.06" stop-color="#e3f4fb"/><stop offset="0.19" stop-color="#b2e1f5"/><stop offset="0.32" stop-color="#88d0ef"/><stop offset="0.45" stop-color="#66c3ea"/><stop offset="0.58" stop-color="#4bb8e7"/><stop offset="0.72" stop-color="#38b1e4"/><stop offset="0.85" stop-color="#2dace3"/><stop offset="1" stop-color="#29abe2"/></radialGradient><linearGradient id="linear-gradient-20" x1="747.4" y1="736.66" x2="801.29" y2="736.66" gradientUnits="userSpaceOnUse"><stop offset="0" stop-color="#c69c6d"/><stop offset="0.36" stop-color="#a67c52"/><stop offset="0.52" stop-color="#a67c52"/><stop offset="0.67" stop-color="#a67c52"/><stop offset="1" stop-color="#c69c6d"/></linearGradient><linearGradient id="linear-gradient-21" x1="789.09" y1="818.57" x2="869.61" y2="818.57" xlink:href="#linear-gradient-8"/><linearGradient id="linear-gradient-22" x1="752.28" y1="853.14" x2="906.83" y2="853.14" xlink:href="#linear-gradient"/><linearGradient id="linear-gradient-23" x1="752.08" y1="853.24" x2="907.03" y2="853.24" xlink:href="#linear-gradient"/><linearGradient id="linear-gradient-24" x1="858.63" y1="736.66" x2="912.52" y2="736.66" xlink:href="#linear-gradient-20"/><linearGradient id="linear-gradient-25" x1="795.52" y1="677.8" x2="864.42" y2="797.14" xlink:href="#linear-gradient-20"/><radialGradient id="Summer-2" cx="827.98" cy="730.67" r="38.46" xlink:href="#Summer"/><radialGradient id="Summer-3" cx="699.59" cy="547.8" r="62.29" xlink:href="#Summer"/><radialGradient id="Summer-4" cx="301.55" cy="548.43" r="62.48" xlink:href="#Summer"/><linearGradient id="linear-gradient-26" x1="498.52" y1="527.64" x2="680.7" y2="527.64" xlink:href="#linear-gradient"/><linearGradient id="linear-gradient-27" x1="358.31" y1="559.61" x2="500.92" y2="559.61" xlink:href="#linear-gradient-2"/><linearGradient id="linear-gradient-28" x1="679.66" y1="546.76" x2="719.74" y2="546.76" xlink:href="#linear-gradient-2"/><linearGradient id="linear-gradient-29" x1="897.05" y1="928.08" x2="975.97" y2="928.08" xlink:href="#linear-gradient-20"/><radialGradient id="Summer-5" cx="722.84" cy="928.42" r="33.54" xlink:href="#Summer"/><linearGradient id="linear-gradient-30" x1="828.58" y1="917.26" x2="926.37" y2="917.26" xlink:href="#linear-gradient"/><linearGradient id="linear-gradient-31" x1="753.31" y1="934.42" x2="829.87" y2="934.42" xlink:href="#linear-gradient-8"/><radialGradient id="Summer-6" cx="936.57" cy="927.52" r="8.85" xlink:href="#Summer"/><radialGradient id="radial-gradient-3" cx="606.95" cy="931.41" r="33.44" xlink:href="#radial-gradient-2"/><radialGradient id="radial-gradient-4" cx="393.29" cy="931.75" r="33.54" xlink:href="#radial-gradient-2"/><linearGradient id="linear-gradient-32" x1="499.02" y1="920.59" x2="596.81" y2="920.59" xlink:href="#linear-gradient"/><linearGradient id="linear-gradient-33" x1="423.76" y1="937.75" x2="500.31" y2="937.75" xlink:href="#linear-gradient-15"/><linearGradient id="linear-gradient-34" x1="596.25" y1="930.85" x2="617.77" y2="930.85" xlink:href="#linear-gradient-15"/><radialGradient id="radial-gradient-5" cx="273.51" cy="934.92" r="33.44" xlink:href="#radial-gradient"/><radialGradient id="radial-gradient-6" cx="59.84" cy="935.26" r="33.54" xlink:href="#radial-gradient"/><linearGradient id="linear-gradient-35" x1="165.58" y1="924.1" x2="263.37" y2="924.1" xlink:href="#linear-gradient"/><linearGradient id="linear-gradient-36" x1="90.31" y1="941.26" x2="166.87" y2="941.26" xlink:href="#linear-gradient-8"/><linearGradient id="linear-gradient-37" x1="262.81" y1="934.36" x2="284.33" y2="934.36" xlink:href="#linear-gradient-8"/></defs><title>cryo</title><path class="cls-1" d="M353.36,259.59h67.77a25,25,0,0,0,24.92-24.92V142.46a25,25,0,0,0-24.92-24.92H353.36c-4.56,0-8.41,3.22-12,10.21a15.45,15.45,0,0,0-1.68,7V244.61a15,15,0,0,0,9.84,14.29A11.51,11.51,0,0,0,353.36,259.59Z" transform="translate(-18.54 -21.14)"/><path class="cls-2" d="M498.17,192.4l-258,258C463.31,270.82,535.76,275,758.64,444.11,607.12,282.56,498.17,192.4,498.17,192.4Z" transform="translate(-18.54 -21.14)"/><path class="cls-3" d="M559.61,413.73H443.24A21.33,21.33,0,0,1,422,392.47V328.6c2.81-27.28,52.29-42.08,47-41.94h59.33c25.63,8.16,39.42,13.29,52.57,40.52v65.29A21.33,21.33,0,0,1,559.61,413.73Z" transform="translate(-18.54 -21.14)"/><path class="cls-4" d="M654.31,344c0,84-68.27,152.48-152.48,152.48S349.35,428,349.35,344Z" transform="translate(-18.54 -21.14)"/><path class="cls-5" d="M501.83,495.38A152.61,152.61,0,0,1,348.95,342.5h.8c0,84,68.22,152.08,152.08,152.08S653.91,426.5,653.91,342.5h.8A152.61,152.61,0,0,1,501.83,495.38Z" transform="translate(-18.54 -21.14)"/><path class="cls-6" d="M651.9,259.59H584.13a25,25,0,0,1-24.92-24.92V142.46a25,25,0,0,1,24.92-24.92H651.9c4.56,0,8.41,3.22,12,10.21a15.45,15.45,0,0,1,1.68,7V244.61a15,15,0,0,1-9.84,14.29A11.51,11.51,0,0,1,651.9,259.59Z" transform="translate(-18.54 -21.14)"/><path class="cls-7" d="M584.09,299.22H419.57c-23.93-9.94-43.34-29.34-43.34-53.28V131.18a43.34,43.34,0,0,1,43.34-43.34H584.09a43.34,43.34,0,0,1,43.34,43.34V245.94C627.43,269.88,608,289.28,584.09,299.22Z" transform="translate(-18.54 -21.14)"/><path class="cls-8" d="M402.71,225c0-54,43-96,96-96s96,42,96,96Z" transform="translate(-18.54 -21.14)"/><path d="M402.22,225.14l-.07-5.22c0-1.58.14-3.16.21-4.75s.3-3.16.44-4.74.45-3.14.67-4.72a92.84,92.84,0,0,1,14-35.35,94,94,0,0,1,12.11-14.84,87.81,87.81,0,0,1,14.92-12,92.17,92.17,0,0,1,17.08-8.5,97.22,97.22,0,0,1,18.33-4.92c1.56-.23,3.12-.51,4.68-.7l4.71-.48,4.72-.3,4.72-.07a111.22,111.22,0,0,1,18.8,1.68,97.9,97.9,0,0,1,18.26,5,87.83,87.83,0,0,1,16.93,8.63,91.36,91.36,0,0,1,14.74,12,96.34,96.34,0,0,1,12,14.74,92.17,92.17,0,0,1,8.82,16.85,93.71,93.71,0,0,1,5.27,18.25,95.76,95.76,0,0,1,1.52,18.85V225h-.38Zm1-1,191.48.11-.39.39a102.24,102.24,0,0,0-2.09-18.63,96.1,96.1,0,0,0-14.37-34.28A94.37,94.37,0,0,0,566,157.37a98.43,98.43,0,0,0-14.42-11.82,105.26,105.26,0,0,0-16.35-9,94.27,94.27,0,0,0-17.84-5.78,88.24,88.24,0,0,0-18.71-1.95L494,129l-4.69.38c-1.56.17-3.11.44-4.66.65s-3.08.59-4.62.88a94.88,94.88,0,0,0-17.77,5.89,99.48,99.48,0,0,0-16.2,9.16c-1.26.89-2.5,1.83-3.75,2.74l-3.64,2.88-3.49,3.06-3.35,3.2a96.88,96.88,0,0,0-11.77,14.31,98,98,0,0,0-8.85,16.3,100.06,100.06,0,0,0-5.64,17.73c-.3,1.53-.66,3-.91,4.58s-.5,3.08-.69,4.62l-.47,4.65Z" transform="translate(-18.54 -21.14)"/><line class="cls-9" x1="321.18" y1="122.48" x2="330.81" y2="122.48"/><line class="cls-9" x1="321.18" y1="126.86" x2="330.49" y2="126.86"/><line class="cls-9" x1="321.18" y1="131.25" x2="330.17" y2="131.25"/><line class="cls-9" x1="321.18" y1="135.64" x2="329.85" y2="135.64"/><line class="cls-9" x1="321.18" y1="140.03" x2="329.53" y2="140.03"/><line class="cls-9" x1="321.18" y1="144.41" x2="329.21" y2="144.41"/><line class="cls-9" x1="321.18" y1="148.8" x2="328.89" y2="148.8"/><line class="cls-9" x1="321.18" y1="153.19" x2="328.56" y2="153.19"/><line class="cls-9" x1="321.18" y1="157.57" x2="328.24" y2="157.57"/><line class="cls-9" x1="321.18" y1="161.96" x2="327.92" y2="161.96"/><line class="cls-9" x1="321.18" y1="166.35" x2="327.6" y2="166.35"/><line class="cls-9" x1="321.18" y1="170.74" x2="327.28" y2="170.74"/><line class="cls-9" x1="321.18" y1="175.12" x2="326.96" y2="175.12"/><line class="cls-9" x1="321.18" y1="179.51" x2="326.64" y2="179.51"/><line class="cls-9" x1="321.18" y1="183.9" x2="326.32" y2="183.9"/><line class="cls-9" x1="321.18" y1="188.29" x2="326" y2="188.29"/><line class="cls-9" x1="646.21" y1="122.48" x2="636.58" y2="122.48"/><line class="cls-9" x1="646.21" y1="126.86" x2="636.9" y2="126.86"/><line class="cls-9" x1="646.21" y1="131.25" x2="637.22" y2="131.25"/><line class="cls-9" x1="646.21" y1="135.64" x2="637.54" y2="135.64"/><line class="cls-9" x1="646.21" y1="140.03" x2="637.86" y2="140.03"/><line class="cls-9" x1="646.21" y1="144.41" x2="638.18" y2="144.41"/><line class="cls-9" x1="646.21" y1="148.8" x2="638.51" y2="148.8"/><line class="cls-9" x1="646.21" y1="153.19" x2="638.83" y2="153.19"/><line class="cls-9" x1="646.21" y1="157.57" x2="639.15" y2="157.57"/><line class="cls-9" x1="646.21" y1="161.96" x2="639.47" y2="161.96"/><line class="cls-9" x1="646.21" y1="166.35" x2="639.79" y2="166.35"/><line class="cls-9" x1="646.21" y1="170.74" x2="640.11" y2="170.74"/><line class="cls-9" x1="646.21" y1="175.12" x2="640.43" y2="175.12"/><line class="cls-9" x1="646.21" y1="179.51" x2="640.75" y2="179.51"/><line class="cls-9" x1="646.21" y1="183.9" x2="641.07" y2="183.9"/><line class="cls-9" x1="646.21" y1="188.29" x2="641.39" y2="188.29"/><rect class="cls-10" x="430.05" y="17.15" width="1" height="76.78" transform="translate(15.61 211.38) rotate(-31.41)"/><rect class="cls-10" x="536.8" y="56.82" width="78.12" height="1" transform="translate(178.94 474.04) rotate(-54.85)"/><path d="M415.81,131.15l1.55-1.27c1-.82,2.51-2,4.48-3.48s4.38-3.17,7.24-5c1.43-.92,3-1.87,4.61-2.86s3.38-2,5.25-3l2.84-1.5,3-1.46c2-1,4.2-1.91,6.4-2.88s4.54-1.81,6.93-2.66,4.84-1.68,7.4-2.35l3.84-1.08,3.94-.92c2.63-.68,5.36-1.07,8.08-1.58,1.36-.28,2.75-.38,4.13-.58s2.72-.36,4.23-.52l8.31-.57c2.83-.06,5.68,0,8.52-.07s5.61.3,8.4.43,5.52.6,8.23.93,5.35,1,8,1.47c2.57.68,5.12,1.26,7.57,2s4.83,1.5,7.1,2.38l3.35,1.3c1.1.42,2.18.85,3.22,1.33,2.07,1,4.11,1.81,6,2.8s3.7,1.86,5.36,2.84,3.27,1.83,4.7,2.78,2.8,1.77,4,2.62,2.33,1.62,3.31,2.36c2,1.45,3.47,2.68,4.48,3.52l1.53,1.31-.29.41-1.74-1c-1.14-.63-2.79-1.59-4.94-2.72-1.06-.59-2.25-1.2-3.56-1.85s-2.7-1.37-4.22-2.09c-3-1.47-6.49-3-10.3-4.54s-8-3.05-12.48-4.5c-1.11-.4-2.27-.67-3.42-1l-3.51-1L530,107.3l-7.63-1.58c-2.6-.38-5.23-.86-7.89-1.24s-5.38-.57-8.09-.77-5.41-.2-8.14-.26l-8.33.29c-1.24.09-2.69.25-4,.37s-2.71.2-4,.43c-2.67.42-5.34.7-7.93,1.28l-3.88.76-3.79.93c-2.52.57-4.93,1.37-7.32,2.05-1.2.34-2.34.79-3.5,1.17s-2.3.75-3.4,1.19c-2.21.86-4.38,1.64-6.42,2.56l-3,1.31-2.86,1.36c-1.89.86-3.62,1.84-5.31,2.69s-3.23,1.78-4.68,2.63c-2.9,1.73-5.39,3.3-7.4,4.65s-3.56,2.46-4.62,3.23l-1.61,1.19Z" transform="translate(-18.54 -21.14)"/><path class="cls-11" d="M91.32,775.65h34.34A12.67,12.67,0,0,0,138.29,763V716.3a12.67,12.67,0,0,0-12.63-12.63H91.32c-2.31,0-4.26,1.63-6.06,5.17a7.83,7.83,0,0,0-.85,3.54v55.68a7.62,7.62,0,0,0,5,7.24A5.83,5.83,0,0,0,91.32,775.65Z" transform="translate(-18.54 -21.14)"/><path class="cls-12" d="M164.7,741.61,34,872.33c113.06-91,149.78-88.85,262.73-3.17C219.91,787.3,164.7,741.61,164.7,741.61Z" transform="translate(-18.54 -21.14)"/><path class="cls-13" d="M195.84,853.77h-59A10.81,10.81,0,0,1,126.09,843V810.62c1.42-13.82,26.5-21.32,23.82-21.25H180c13,4.14,20,6.74,26.64,20.53V843A10.81,10.81,0,0,1,195.84,853.77Z" transform="translate(-18.54 -21.14)"/><path class="cls-14" d="M243.83,817.5a77.27,77.27,0,1,1-154.54,0Z" transform="translate(-18.54 -21.14)"/><path class="cls-15" d="M166.56,895A77.38,77.38,0,0,1,89.08,817.5h.41a77.07,77.07,0,0,0,154.14,0H244A77.38,77.38,0,0,1,166.56,895Z" transform="translate(-18.54 -21.14)"/><path class="cls-16" d="M242.61,775.65H208.26A12.67,12.67,0,0,1,195.63,763V716.3a12.67,12.67,0,0,1,12.63-12.63h34.34c2.31,0,4.26,1.63,6.06,5.17a7.83,7.83,0,0,1,.85,3.54v55.68a7.62,7.62,0,0,1-5,7.24A5.83,5.83,0,0,1,242.61,775.65Z" transform="translate(-18.54 -21.14)"/><path class="cls-17" d="M208.24,795.74H124.87c-12.13-5-22-14.87-22-27V710.58a22,22,0,0,1,22-22h83.37a22,22,0,0,1,22,22v58.16C230.2,780.87,220.37,790.7,208.24,795.74Z" transform="translate(-18.54 -21.14)"/><path class="cls-18" d="M116.33,758a48.65,48.65,0,0,1,97.3,0Z" transform="translate(-18.54 -21.14)"/><path d="M115.83,757.94c0-1.6-.08-3.19-.08-4.79s.31-3.25.46-4.89.66-3.19,1-4.8,1-3.11,1.5-4.68c.25-.78.65-1.51,1-2.26l1-2.24c.76-1.46,1.65-2.84,2.47-4.27s1.93-2.66,2.91-4,2.21-2.44,3.31-3.67,2.45-2.2,3.69-3.28,2.67-1.92,4-2.82,2.87-1.6,4.33-2.33,3-1.27,4.54-1.82,3.11-1,4.67-1.36,3.17-.64,4.75-.89,3.19-.37,4.78-.52l4.79-.15,4.78.22c1.59.15,3.17.42,4.77.57s3.14.64,4.72,1,3.08.94,4.63,1.41,3,1.23,4.48,1.88,2.84,1.57,4.24,2.4,2.64,1.9,3.94,2.87l3.61,3.29c1.09,1.21,2.2,2.39,3.26,3.63s2,2.59,2.89,3.93,1.72,2.76,2.46,4.21,1.41,2.93,2,4.44,1.11,3.05,1.55,4.61.8,3.14,1.06,4.73.42,3.21.56,4.81l.08,4.65V758h-.4l-97.79.29Zm1.06-.47,96.74.11-.39.39-.4-4.72c-.23-1.56-.55-3.1-.81-4.65s-.83-3-1.22-4.55-1.1-2.94-1.63-4.4-1.38-2.81-2.06-4.21-1.63-2.66-2.43-4-1.87-2.5-2.79-3.76-2.1-2.31-3.15-3.46l-3.48-3.13c-1.27-.91-2.5-1.87-3.75-2.8l-4-2.49c-1.4-.7-2.75-1.5-4.17-2.18s-2.9-1.24-4.38-1.78-3-.94-4.56-1.33-3.12-.57-4.69-.81l-4.77-.25-4.75.33c-1.57.24-3.12.58-4.68.86s-3,.94-4.53,1.4-2.9,1.22-4.34,1.83-2.74,1.51-4.11,2.24l-3.88,2.56c-1.22,1-2.42,1.93-3.65,2.85l-3.4,3.14c-1,1.14-2.1,2.26-3.1,3.42s-1.87,2.45-2.77,3.7-1.67,2.59-2.42,3.94-1.45,2.73-2.06,4.15-1.17,2.87-1.68,4.34-.92,3-1.29,4.48-.63,3-.92,4.57S117.06,756.05,116.89,757.46Z" transform="translate(-18.54 -21.14)"/><line class="cls-9" x1="65.87" y1="695.74" x2="70.75" y2="695.74"/><line class="cls-9" x1="65.87" y1="699.91" x2="70.44" y2="699.91"/><line class="cls-9" x1="65.87" y1="704.08" x2="70.14" y2="704.08"/><line class="cls-9" x1="65.87" y1="708.25" x2="69.83" y2="708.25"/><line class="cls-9" x1="65.87" y1="712.42" x2="69.53" y2="712.42"/><line class="cls-9" x1="65.87" y1="716.59" x2="69.22" y2="716.59"/><line class="cls-9" x1="65.87" y1="720.75" x2="68.92" y2="720.75"/><line class="cls-9" x1="65.87" y1="724.92" x2="68.61" y2="724.92"/><line class="cls-9" x1="65.87" y1="729.09" x2="68.31" y2="729.09"/><line class="cls-9" x1="230.58" y1="695.74" x2="225.7" y2="695.74"/><line class="cls-9" x1="230.58" y1="699.91" x2="226" y2="699.91"/><line class="cls-9" x1="230.58" y1="704.08" x2="226.31" y2="704.08"/><line class="cls-9" x1="230.58" y1="708.25" x2="226.61" y2="708.25"/><line class="cls-9" x1="230.58" y1="712.42" x2="226.92" y2="712.42"/><line class="cls-9" x1="230.58" y1="716.59" x2="227.22" y2="716.59"/><line class="cls-9" x1="230.58" y1="720.75" x2="227.53" y2="720.75"/><line class="cls-9" x1="230.58" y1="724.92" x2="227.83" y2="724.92"/><line class="cls-9" x1="230.58" y1="729.09" x2="228.14" y2="729.09"/><line class="cls-9" x1="101.76" y1="634.5" x2="122.04" y2="667.71"/><line class="cls-9" x1="174.75" y1="667.3" x2="196.32" y2="636.71"/><path d="M122.89,710.47l.77-.66c.5-.43,1.25-1.06,2.23-1.82s2.19-1.66,3.63-2.64,3.09-2,5-3.06,3.95-2.1,6.19-3.11a66.25,66.25,0,0,1,7.28-2.7l2-.59,2-.51c1.34-.38,2.74-.59,4.14-.87.7-.15,1.41-.22,2.12-.33s1.36-.2,2.2-.3l4.21-.34c1.45-.06,2.94-.08,4.41-.12l4.33.14c1.43.11,2.85.24,4.26.39s2.76.47,4.11.72,2.64.65,3.9,1,2.48.81,3.64,1.29,2.29.92,3.35,1.43,2.08,1,3,1.55,1.86,1,2.7,1.57,1.64,1,2.35,1.54a43.65,43.65,0,0,1,3.61,2.78c1,.81,1.68,1.5,2.16,2l.72.74-.29.41-3.55-1.61c-.56-.26-1.18-.53-1.86-.81s-1.4-.61-2.19-.92c-1.56-.66-3.34-1.33-5.28-2-1-.38-2-.68-3-1s-2.15-.67-3.26-1l-3.47-.95-3.64-.89-3.79-.83-3.92-.7c-1.33-.16-2.68-.35-4-.47l-4-.21-4.22.09-2,.15c-.68.07-1.36.08-2,.19-1.34.19-2.68.32-4,.58l-2,.34-1.91.43a71,71,0,0,0-7.18,2.06c-2.25.79-4.36,1.62-6.25,2.5s-3.61,1.75-5.1,2.58-2.76,1.61-3.79,2.27-1.83,1.2-2.37,1.57l-.83.58Z" transform="translate(-18.54 -21.14)"/><path class="cls-19" d="M428.32,774.65h34.34A12.67,12.67,0,0,0,475.29,762V715.3a12.67,12.67,0,0,0-12.63-12.63H428.32c-2.31,0-4.26,1.63-6.06,5.17a7.83,7.83,0,0,0-.85,3.54v55.68a7.62,7.62,0,0,0,5,7.24A5.83,5.83,0,0,0,428.32,774.65Z" transform="translate(-18.54 -21.14)"/><path class="cls-20" d="M501.7,740.61,371,871.33c113.06-91,149.78-88.85,262.73-3.17C556.91,786.3,501.7,740.61,501.7,740.61Z" transform="translate(-18.54 -21.14)"/><path class="cls-21" d="M532.84,852.77h-59A10.81,10.81,0,0,1,463.09,842V809.62c1.42-13.82,26.5-21.32,23.82-21.25H517c13,4.14,20,6.74,26.64,20.53V842A10.81,10.81,0,0,1,532.84,852.77Z" transform="translate(-18.54 -21.14)"/><path class="cls-22" d="M580.83,816.5a77.27,77.27,0,0,1-154.54,0Z" transform="translate(-18.54 -21.14)"/><path class="cls-23" d="M503.56,894a77.38,77.38,0,0,1-77.48-77.48h.41a77.07,77.07,0,0,0,154.14,0H581A77.38,77.38,0,0,1,503.56,894Z" transform="translate(-18.54 -21.14)"/><path class="cls-24" d="M579.61,774.65H545.26A12.67,12.67,0,0,1,532.63,762V715.3a12.67,12.67,0,0,1,12.63-12.63h34.34c2.31,0,4.26,1.63,6.06,5.17a7.83,7.83,0,0,1,.85,3.54v55.68a7.62,7.62,0,0,1-5,7.24A5.83,5.83,0,0,1,579.61,774.65Z" transform="translate(-18.54 -21.14)"/><path class="cls-25" d="M545.24,794.74H461.87c-12.13-5-22-14.87-22-27V709.58a22,22,0,0,1,22-22h83.37a22,22,0,0,1,22,22v58.16C567.2,779.87,557.37,789.7,545.24,794.74Z" transform="translate(-18.54 -21.14)"/><path class="cls-26" d="M453.33,757a48.65,48.65,0,0,1,97.3,0Z" transform="translate(-18.54 -21.14)"/><path d="M452.83,756.94c0-1.6-.08-3.19-.08-4.79s.31-3.25.46-4.89.66-3.19,1-4.8,1-3.11,1.5-4.68c.25-.78.65-1.51,1-2.26l1-2.24c.76-1.46,1.65-2.84,2.47-4.27s1.93-2.66,2.91-4,2.21-2.44,3.31-3.67,2.45-2.2,3.69-3.28,2.67-1.92,4-2.82,2.87-1.6,4.33-2.33,3-1.27,4.54-1.82,3.11-1,4.67-1.36,3.17-.64,4.75-.89,3.19-.37,4.78-.52l4.79-.15,4.78.22c1.59.15,3.17.42,4.77.57s3.14.64,4.72,1,3.08.94,4.63,1.41,3,1.23,4.48,1.88,2.84,1.57,4.24,2.4,2.64,1.9,3.94,2.87l3.61,3.29c1.09,1.21,2.2,2.39,3.26,3.63s2,2.59,2.89,3.93,1.72,2.76,2.46,4.21,1.41,2.93,2,4.44,1.11,3.05,1.55,4.61.8,3.14,1.06,4.73.42,3.21.56,4.81l.08,4.65V757h-.4l-97.79.29Zm1.06-.47,96.74.11-.39.39-.4-4.72c-.23-1.56-.55-3.1-.81-4.65s-.83-3-1.22-4.55-1.1-2.94-1.63-4.4-1.38-2.81-2.06-4.21-1.63-2.66-2.43-4-1.87-2.5-2.79-3.76-2.1-2.31-3.15-3.46l-3.48-3.13c-1.27-.91-2.5-1.87-3.75-2.8l-4-2.49c-1.4-.7-2.75-1.5-4.17-2.18s-2.9-1.24-4.38-1.78-3-.94-4.56-1.33-3.12-.57-4.69-.81l-4.77-.25-4.75.33c-1.57.24-3.12.58-4.68.86s-3,.94-4.53,1.4-2.9,1.22-4.34,1.83-2.74,1.51-4.11,2.24l-3.88,2.56c-1.22,1-2.42,1.93-3.65,2.85l-3.4,3.14c-1,1.14-2.1,2.26-3.1,3.42s-1.87,2.45-2.77,3.7-1.67,2.59-2.42,3.94-1.45,2.73-2.06,4.15-1.17,2.87-1.68,4.34-.92,3-1.29,4.48-.63,3-.92,4.57S454.06,755.05,453.89,756.46Z" transform="translate(-18.54 -21.14)"/><line class="cls-9" x1="402.87" y1="694.74" x2="407.75" y2="694.74"/><line class="cls-9" x1="402.87" y1="698.91" x2="407.44" y2="698.91"/><line class="cls-9" x1="402.87" y1="703.08" x2="407.14" y2="703.08"/><line class="cls-9" x1="402.87" y1="707.25" x2="406.83" y2="707.25"/><line class="cls-9" x1="402.87" y1="711.42" x2="406.53" y2="711.42"/><line class="cls-9" x1="402.87" y1="715.59" x2="406.22" y2="715.59"/><line class="cls-9" x1="402.87" y1="719.75" x2="405.92" y2="719.75"/><line class="cls-9" x1="402.87" y1="723.92" x2="405.61" y2="723.92"/><line class="cls-9" x1="402.87" y1="728.09" x2="405.31" y2="728.09"/><line class="cls-9" x1="567.58" y1="694.74" x2="562.7" y2="694.74"/><line class="cls-9" x1="567.58" y1="698.91" x2="563" y2="698.91"/><line class="cls-9" x1="567.58" y1="703.08" x2="563.31" y2="703.08"/><line class="cls-9" x1="567.58" y1="707.25" x2="563.61" y2="707.25"/><line class="cls-9" x1="567.58" y1="711.42" x2="563.92" y2="711.42"/><line class="cls-9" x1="567.58" y1="715.59" x2="564.22" y2="715.59"/><line class="cls-9" x1="567.58" y1="719.75" x2="564.53" y2="719.75"/><line class="cls-9" x1="567.58" y1="723.92" x2="564.83" y2="723.92"/><line class="cls-9" x1="567.58" y1="728.09" x2="565.14" y2="728.09"/><line class="cls-9" x1="438.76" y1="633.5" x2="459.04" y2="666.71"/><line class="cls-9" x1="511.75" y1="666.3" x2="533.32" y2="635.71"/><path d="M459.89,709.47l.77-.66c.5-.43,1.25-1.06,2.23-1.82s2.19-1.66,3.63-2.64,3.09-2,5-3.06,3.95-2.1,6.19-3.11a66.25,66.25,0,0,1,7.28-2.7l2-.59,2-.51c1.34-.38,2.74-.59,4.14-.87.7-.15,1.41-.22,2.12-.33s1.36-.2,2.2-.3l4.21-.34c1.45-.06,2.94-.08,4.41-.12l4.33.14c1.43.11,2.85.24,4.26.39s2.76.47,4.11.72,2.64.65,3.9,1,2.48.81,3.64,1.29,2.29.92,3.35,1.43,2.08,1,3,1.55,1.86,1,2.7,1.57,1.64,1,2.35,1.54a43.65,43.65,0,0,1,3.61,2.78c1,.81,1.68,1.5,2.16,2l.72.74-.29.41-3.55-1.61c-.56-.26-1.18-.53-1.86-.81s-1.4-.61-2.19-.92c-1.56-.66-3.34-1.33-5.28-2-1-.38-2-.68-3-1s-2.15-.67-3.26-1l-3.47-.95-3.64-.89-3.79-.83-3.92-.7c-1.33-.16-2.68-.35-4-.47l-4-.21-4.22.09-2,.15c-.68.07-1.36.08-2,.19-1.34.19-2.68.32-4,.58l-2,.34-1.91.43a71,71,0,0,0-7.18,2.06c-2.25.79-4.36,1.62-6.25,2.5s-3.61,1.75-5.1,2.58-2.76,1.61-3.79,2.27-1.83,1.2-2.37,1.57l-.83.58Z" transform="translate(-18.54 -21.14)"/><path class="cls-27" d="M754.32,772.65h34.34A12.67,12.67,0,0,0,801.29,760V713.3a12.67,12.67,0,0,0-12.63-12.63H754.32c-2.31,0-4.26,1.63-6.06,5.17a7.83,7.83,0,0,0-.85,3.54v55.68a7.62,7.62,0,0,0,5,7.24A5.83,5.83,0,0,0,754.32,772.65Z" transform="translate(-18.54 -21.14)"/><path class="cls-28" d="M827.7,738.61,697,869.33c113.06-91,149.78-88.85,262.73-3.17C882.91,784.3,827.7,738.61,827.7,738.61Z" transform="translate(-18.54 -21.14)"/><path class="cls-29" d="M858.84,850.77h-59A10.81,10.81,0,0,1,789.09,840V807.62c1.42-13.82,26.5-21.32,23.82-21.25H843c13,4.14,20,6.74,26.64,20.53V840A10.81,10.81,0,0,1,858.84,850.77Z" transform="translate(-18.54 -21.14)"/><path class="cls-30" d="M906.83,814.5a77.27,77.27,0,0,1-154.54,0Z" transform="translate(-18.54 -21.14)"/><path class="cls-31" d="M829.56,892a77.38,77.38,0,0,1-77.48-77.48h.41a77.07,77.07,0,0,0,154.14,0H907A77.38,77.38,0,0,1,829.56,892Z" transform="translate(-18.54 -21.14)"/><path class="cls-32" d="M905.61,772.65H871.26A12.67,12.67,0,0,1,858.63,760V713.3a12.67,12.67,0,0,1,12.63-12.63h34.34c2.31,0,4.26,1.63,6.06,5.17a7.83,7.83,0,0,1,.85,3.54v55.68a7.62,7.62,0,0,1-5,7.24A5.83,5.83,0,0,1,905.61,772.65Z" transform="translate(-18.54 -21.14)"/><path class="cls-33" d="M871.24,792.74H787.87c-12.13-5-22-14.87-22-27V707.58a22,22,0,0,1,22-22h83.37a22,22,0,0,1,22,22v58.16C893.2,777.87,883.37,787.7,871.24,792.74Z" transform="translate(-18.54 -21.14)"/><path class="cls-34" d="M779.33,755a48.65,48.65,0,1,1,97.3,0Z" transform="translate(-18.54 -21.14)"/><path d="M778.83,754.94c0-1.6-.08-3.19-.08-4.79s.31-3.25.46-4.89.66-3.19,1-4.8,1-3.11,1.5-4.68c.25-.78.65-1.51,1-2.26l1-2.24c.76-1.46,1.65-2.84,2.47-4.27s1.93-2.66,2.91-4,2.21-2.44,3.31-3.67,2.45-2.2,3.69-3.28,2.67-1.92,4-2.82,2.87-1.6,4.33-2.33,3-1.27,4.54-1.82,3.11-1,4.67-1.36,3.17-.64,4.75-.89,3.19-.37,4.78-.52l4.79-.15,4.78.22c1.59.15,3.17.42,4.77.57s3.14.64,4.72,1,3.08.94,4.63,1.41,3,1.23,4.48,1.88,2.84,1.57,4.24,2.4,2.64,1.9,3.94,2.87l3.61,3.29c1.09,1.21,2.2,2.39,3.26,3.63s2,2.59,2.89,3.93,1.72,2.76,2.46,4.21,1.41,2.93,2,4.44,1.11,3.05,1.55,4.61.8,3.14,1.06,4.73.42,3.21.56,4.81l.08,4.65V755h-.4l-97.79.29Zm1.06-.47,96.74.11-.39.39-.4-4.72c-.23-1.56-.55-3.1-.81-4.65s-.83-3-1.22-4.55-1.1-2.94-1.63-4.4-1.38-2.81-2.06-4.21-1.63-2.66-2.43-4-1.87-2.5-2.79-3.76-2.1-2.31-3.15-3.46l-3.48-3.13c-1.27-.91-2.5-1.87-3.75-2.8l-4-2.49c-1.4-.7-2.75-1.5-4.17-2.18s-2.9-1.24-4.38-1.78-3-.94-4.56-1.33-3.12-.57-4.69-.81l-4.77-.25-4.75.33c-1.57.24-3.12.58-4.68.86s-3,.94-4.53,1.4-2.9,1.22-4.34,1.83-2.74,1.51-4.11,2.24l-3.88,2.56c-1.22,1-2.42,1.93-3.65,2.85l-3.4,3.14c-1,1.14-2.09,2.26-3.1,3.42s-1.87,2.45-2.77,3.7-1.67,2.59-2.42,3.94-1.45,2.73-2.06,4.15-1.17,2.87-1.68,4.34-.92,3-1.29,4.48-.63,3-.92,4.57S780.06,753.05,779.89,754.46Z" transform="translate(-18.54 -21.14)"/><line class="cls-9" x1="728.87" y1="692.74" x2="733.75" y2="692.74"/><line class="cls-9" x1="728.87" y1="696.91" x2="733.44" y2="696.91"/><line class="cls-9" x1="728.87" y1="701.08" x2="733.14" y2="701.08"/><line class="cls-9" x1="728.87" y1="705.25" x2="732.83" y2="705.25"/><line class="cls-9" x1="728.87" y1="709.42" x2="732.53" y2="709.42"/><line class="cls-9" x1="728.87" y1="713.59" x2="732.22" y2="713.59"/><line class="cls-9" x1="728.87" y1="717.75" x2="731.92" y2="717.75"/><line class="cls-9" x1="728.87" y1="721.92" x2="731.61" y2="721.92"/><line class="cls-9" x1="728.87" y1="726.09" x2="731.31" y2="726.09"/><line class="cls-9" x1="893.58" y1="692.74" x2="888.7" y2="692.74"/><line class="cls-9" x1="893.58" y1="696.91" x2="889" y2="696.91"/><line class="cls-9" x1="893.58" y1="701.08" x2="889.31" y2="701.08"/><line class="cls-9" x1="893.58" y1="705.25" x2="889.61" y2="705.25"/><line class="cls-9" x1="893.58" y1="709.42" x2="889.92" y2="709.42"/><line class="cls-9" x1="893.58" y1="713.59" x2="890.22" y2="713.59"/><line class="cls-9" x1="893.58" y1="717.75" x2="890.53" y2="717.75"/><line class="cls-9" x1="893.58" y1="721.92" x2="890.83" y2="721.92"/><line class="cls-9" x1="893.58" y1="726.09" x2="891.14" y2="726.09"/><line class="cls-9" x1="764.76" y1="631.5" x2="785.04" y2="664.71"/><line class="cls-9" x1="837.75" y1="664.3" x2="859.32" y2="633.71"/><path d="M785.89,707.47l.77-.66c.5-.43,1.25-1.06,2.23-1.82s2.19-1.66,3.63-2.64,3.09-2,5-3.06,3.95-2.1,6.19-3.11a66.25,66.25,0,0,1,7.28-2.7l2-.59,2-.51c1.34-.38,2.74-.59,4.14-.87.7-.15,1.41-.22,2.12-.33s1.36-.2,2.2-.3l4.21-.34c1.45-.06,2.94-.08,4.41-.12l4.33.14c1.43.11,2.85.24,4.26.39s2.76.47,4.11.72,2.64.65,3.9,1,2.48.81,3.64,1.29,2.29.92,3.35,1.43,2.08,1,3,1.55,1.86,1,2.7,1.57,1.64,1,2.35,1.54a43.65,43.65,0,0,1,3.61,2.78c1,.81,1.68,1.5,2.16,2l.72.74-.29.41-3.55-1.61c-.56-.26-1.18-.53-1.86-.81s-1.4-.61-2.19-.92c-1.56-.66-3.34-1.33-5.28-2-1-.38-2-.68-3-1s-2.15-.67-3.26-1l-3.47-.95-3.64-.89-3.79-.83-3.92-.7c-1.33-.16-2.68-.35-4-.47l-4-.21-4.22.09-2,.15c-.68.07-1.36.08-2,.19-1.34.19-2.68.32-4,.58l-2,.34-1.91.43a71,71,0,0,0-7.18,2.06c-2.25.79-4.36,1.62-6.25,2.5s-3.61,1.75-5.1,2.58-2.76,1.61-3.79,2.27-1.83,1.2-2.37,1.57l-.83.58Z" transform="translate(-18.54 -21.14)"/><path class="cls-35" d="M773.1,514.91c-.2,1.57-.37,3.14-.62,4.7a137.35,137.35,0,0,1-6,22.8c-3.29,9.63-6.63,19.25-10.34,28.73a41.72,41.72,0,0,1-11.33,16.3c-4.72,4.15-10.34,6.13-16.52,6.94a264.14,264.14,0,0,1-32.17,1.91c-9.47.07-19,.09-28.43-.09A215.38,215.38,0,0,1,640,594.34c-1.42-.21-2.83-.52-4.24-.79-5.42-1-7.68-5-9-9.79-1.17-4.12-.58-8.25.32-12.34,2.42-11,6-21.6,9.65-32.22,1.81-5.28,3.54-10.61,5.71-15.75a44.79,44.79,0,0,1,12.32-17.34,28.51,28.51,0,0,1,18.86-6.84q41.28,0,82.55,0a27,27,0,0,1,5.71.6c6.08,1.33,9.61,5.2,10.78,11.28l.49,2.54Zm-65.73,8.64v-.2h-3.12c-7.71,0-15.43,0-23.09,1.16-4.54.68-8.69,2-10.81,6.61-.33.72-.79,1.39-1.13,2.11-4.28,8.9-6.95,18.35-9.31,27.89-.87,3.52.71,6.18,4.08,7.58a7.71,7.71,0,0,0,2.15.7c4.53.42,9.05,1,13.59,1.1,7.39.19,14.8.23,22.19,0,5.42-.14,10.84-.67,16.24-1.18,4.65-.44,8.38-2.32,10.77-6.71a77.48,77.48,0,0,0,5.64-13c2-6,3.9-12.09,4.25-18.5.2-3.56-1.11-5.72-4.58-6.54a36.54,36.54,0,0,0-7.58-1C720.25,523.46,713.81,523.55,707.38,523.55Zm52.9-16.44.07-.38a9.07,9.07,0,0,0-1.82-.65,38.4,38.4,0,0,0-5.12-.5q-37.61,0-75.22,0a61.85,61.85,0,0,1-8.37-.44,22.68,22.68,0,0,0-11.59,1.59c-2.18.85-4.07,1.82-5.06,4.3-1.59,4-3.77,7.75-5.36,11.75-5.55,14-9.62,28.42-13.63,42.88a31.75,31.75,0,0,0-1,13.64,5,5,0,0,0,.35.95c.35-.25.41-.39.43-.55.53-3.18.71-6.47,1.63-9.53,3.29-10.88,6.82-21.69,10.3-32.52a63.39,63.39,0,0,1,7.36-16.32c3.65-5.42,7.87-10.15,14.14-12.66a19.45,19.45,0,0,1,7.32-1.53q42,0,84.1,0Zm-14.68,18.51-.31,0c0,.27,0,.55-.05.82-.35,3.41-.58,6.84-1.08,10.24-.76,5.14-3.11,9.79-4.8,14.65-2.42,7-6.23,12.84-12.79,16.6a1.64,1.64,0,0,0-.58.58c-1.94,3.4-5.12,5.07-8.67,6.17a49.35,49.35,0,0,1-14.69,1.82c-9.16,0-18.32.07-27.47,0-3.67,0-7.33-.46-11-.74-1.43-.11-2.85-.31-4.27-.47l-.09.39c.73.25,1.44.54,2.18.73a57.12,57.12,0,0,0,14.14,1.6q18,.09,36-.21a54,54,0,0,0,14.88-2.3c3.18-1,5.85-2.62,7.45-5.61,1.88-3.51,3.86-7,5.43-10.65,4.11-9.57,6.53-19.53,6.14-30C745.93,528,745.72,526.79,745.59,525.62Z" transform="translate(-18.54 -21.14)"/><path class="cls-36" d="M227.58,573c.36-1.91.69-3.82,1.08-5.72a196.07,196.07,0,0,1,9.15-29.47c1.89-5,3.65-10,6-14.73A37.66,37.66,0,0,1,267,503.15a49.22,49.22,0,0,1,11.55-1.85c8.69-.53,17.4-1,26.11-1,22.59-.18,45.19-.15,67.78-.18a4.92,4.92,0,0,1,2.07.46,1.44,1.44,0,0,1,.91,1.93c-2.32,6.75-4.67,13.5-6.86,20.3a2.88,2.88,0,0,1-3.13,2.25h-1.2c-21.92,0-43.83,0-65.75,0a119,119,0,0,0-18.63,1.31,12,12,0,0,0-8.61,5.61,67.93,67.93,0,0,0-6.87,14.86,96.54,96.54,0,0,0-2.89,9.38,47.44,47.44,0,0,0-1.14,8.26c-.18,3.22,2,5,5.77,5.62,7.32,1.27,14.7,1.28,22.07,1.31,20.52.06,41,0,61.55,0a11.24,11.24,0,0,1,1.2,0,1.37,1.37,0,0,1,1.24,1.86c-2.25,6.91-4.46,13.82-6.81,20.69-.88,2.59-1.34,2.75-4.06,2.75-23.28,0-46.55.06-69.83,0-9.43,0-18.86-.48-28.14-2.39-1.83-.38-3.63-1-5.44-1.44-5.55-1.5-8.4-5.47-9.81-10.75-.15-.57-.32-1.14-.48-1.71Zm137.89-66.6h-1.56c-21.44,0-42.88-.08-64.32,0-9.63.06-19.25.47-28.88.84a67.61,67.61,0,0,0-8.08,1c-5.43.88-9.13,4.24-11.45,8.94-2.11,4.28-3.74,8.81-5.45,13.28-4.45,11.64-8.69,23.36-10.82,35.7a30.91,30.91,0,0,0-.36,11.2,5.66,5.66,0,0,0,.39,1.08c.54-3.59.87-7.35,1.71-11,2.38-10.34,6.29-20.18,10.3-30a113.15,113.15,0,0,1,5.18-11.84c4.25-7.72,11-12.5,19.32-15.12,5.91-1.85,12-2,18.12-2.38,3.27-.2,6.55-.21,9.83-.22q30.9,0,61.8,0c1.19,0,2.39-.18,3.58-.24C365.55,507.66,365.71,507.26,365.47,506.39ZM342.3,577.31h-1.57c-21.64,0-43.28,0-64.92,0-3.7,0-7.41-.51-11.11-.86-1.73-.16-3.44-.5-5.15-.75a1.43,1.43,0,0,0,.89.73c1.07.33,2.13.69,3.22.92,6.65,1.42,13.41,1.58,20.16,1.61,18.32.08,36.64,0,55,0a24.32,24.32,0,0,0,3.31-.43c.06,0,.12-.09.21-.16Z" transform="translate(-18.54 -21.14)"/><path class="cls-37" d="M680.7,459.47a4.89,4.89,0,0,1-.77,1.36c-10,8.89-20,17.86-30.09,26.61Q607,524.38,564.09,561.18a4.21,4.21,0,0,0-1.2,1.73q-3.78,11-7.47,22c-.94,2.8-1.88,5.6-2.7,8.44-.54,1.86-1,2.4-3.38,2.42-6.48.07-13,0-19.44,0h-6.36c-1.75,0-2-.32-1.55-2.08.67-2.46,1.38-4.92,2.16-7.35q3.57-11.05,7.23-22.07a3.61,3.61,0,0,0-.08-2.64c-2.35-5.93-5.69-11.34-8.79-16.87-7.77-13.86-15.4-27.8-23.08-41.72-.36-.65-.61-1.35-.91-2l.26-.36a8.48,8.48,0,0,1,1.8.73c2.52,1.76,5,3.61,7.5,5.36a4.56,4.56,0,0,0,4.2.78,5.09,5.09,0,0,1,1.55-.09h17c-.34-1-1.08-1.21-1.95-1.2-4.28,0-8.57-.14-12.84,0a18.54,18.54,0,0,1-11.85-3.81c-1-.68-1.87-1.4-2.8-2.1l.14-.32c.42,0,.83-.05,1.25-.05,10.8,0,21.6,0,32.4,0a1.69,1.69,0,0,1,1.77,1.15q7.87,15.88,15.84,31.72c.52,1,1.2,2,1.77,3a1,1,0,0,0,1.49.41,19.42,19.42,0,0,0,2.85-2c3.09-2.83,6.05-5.81,9.18-8.61q36-32.23,72.07-64.41c.65-.58,1.26-1.19,1.88-1.79Zm-18,6.67,0-.67a6,6,0,0,0-1.23-.27c-2.72,0-5.44-.1-8.16,0a26.26,26.26,0,0,1-10.36-1.49,2.73,2.73,0,0,0-2,.21,21.15,21.15,0,0,0-3.63,2.52c-3.87,3.41-7.65,6.91-11.49,10.35l-62.28,55.91a21.57,21.57,0,0,0-4.37,4.87,8.67,8.67,0,0,1-6,4c-.62.12-1.27.12-1.89.26a2.87,2.87,0,0,0-.8.5c.24.16.47.41.74.46a30.14,30.14,0,0,0,4.14.63c5,.19,9.12-2,12.61-5.44,1.54-1.51,2.81-3.3,4.4-4.73q18.89-16.92,37.86-33.75,17.91-15.95,35.81-31.91a3,3,0,0,1,2.25-.84c2.8,0,5.6.1,8.4,0C658.75,466.68,660.75,466.35,662.75,466.14Zm-133.88,122c1.73.72,2.22.67,3-.68a22.9,22.9,0,0,0,1.93-4.22c.9-2.68,1.53-5.45,2.47-8.12,1.79-5.1,3.15-10.23,2.14-15.7a6.09,6.09,0,0,0-.32-.92l-.43.11c0,.39,0,.78,0,1.17a13.67,13.67,0,0,1-1,6.08c-.68,1.87-1.36,3.75-2,5.63C532.71,577,530.8,582.51,528.87,588.1Z" transform="translate(-18.54 -21.14)"/><path class="cls-38" d="M475.85,559.19c.58.32.84.48,1.12.61a11.8,11.8,0,0,1,6.91,9.56c.62,4.3,1.4,8.58,2.07,12.88q2.69,17.35,5.34,34.7c.18,1.18-.71,1.35-1.47,1.63a2.62,2.62,0,0,1-.84,0c-9.08,0-18.16,0-27.24,0-1.26,0-2-.42-2.31-1.56-1.05-4-2.29-8-3.05-12.05-1.74-9.34-3.3-18.72-4.81-28.1-.35-2.16-1.15-3.54-3.46-3.73-1-.09-2-.4-3.07-.4-15.64,0-31.28,0-46.92-.05a3.69,3.69,0,0,0-3.92,2.66c-.83,2.41-1.4,4.91-2.22,7.32-1.34,3.93-2.83,7.8-4.16,11.73a3.22,3.22,0,0,1-3.46,2.31q-12.24,0-24.48,0c-1.27,0-1.84-1-1.41-2.39,1-3.36,2-6.72,3.13-10.06q13-40.28,26-80.55c.73-2.25,1.45-2.78,3.78-2.78q35.88,0,71.76,0c3.31,0,6.63-.36,9.94-.33a58.11,58.11,0,0,1,8.35.66c4.13.65,8.25,1.45,12.31,2.44a7.56,7.56,0,0,1,3.95,2.29,13.34,13.34,0,0,1,2.77,5.84c1.06,5.7,0,11.13-1.63,16.53a108.14,108.14,0,0,1-7.69,19.08c-2.91,5.62-7.74,9.13-13.69,11.15Zm-49.11-11v.21c7.94-.3,15.89-.5,23.83-1a76.57,76.57,0,0,0,9.22-1.43,3.15,3.15,0,0,0,1.84-1,18,18,0,0,0,2.55-4.15,71.17,71.17,0,0,0,3-9.32c.59-2.56.32-4.27-3-5.19a24.8,24.8,0,0,0-6.5-.88c-14.72-.07-29.43,0-44.15-.05a3.44,3.44,0,0,0-3.24,1.67,26.59,26.59,0,0,0-2,4.32c-.54,1.53-.78,3.17-1.27,4.73-1.06,3.43-2.2,6.83-3.28,10.26-.31,1,.17,1.64,1.23,1.79a6.82,6.82,0,0,0,1,0ZM390.5,503.79l-.41.35a15.88,15.88,0,0,0,.89,3.27,2.93,2.93,0,0,1,.14,2.47c-3.36,10.37-6.66,20.75-10,31.11q-7.63,23.4-15.34,46.77c-.4,1.21,0,1.68,1.28,1.5s2.29-1.22,2.65-3c.33-1.59.59-3.21,1-4.76.62-2.11,1.4-4.16,2.09-6.25q10.79-32.82,21.55-65.64a1.43,1.43,0,0,1,1.66-1.19c27,0,53.92,0,80.87.06a73.65,73.65,0,0,1,8.45.85c1,.12,2.06.41,3.08.62l.17-.42a7.92,7.92,0,0,0-1.18-.56,59.38,59.38,0,0,0-16.59-2.15q-36.48-.07-73,0a7.06,7.06,0,0,1-4.45-1.41,13.82,13.82,0,0,0-1.46-1.05A10.11,10.11,0,0,0,390.5,503.79Zm83.32,22.14c-.14.2-.21.26-.21.31,0,.6,0,1.2,0,1.8.16,3.78-1.33,7.08-3,10.33-1.41,2.75-3.08,5.21-6,6.5a1.61,1.61,0,0,0-.4.26c-1.08.93-2.43,1.7-3.17,2.85a10.29,10.29,0,0,1-4.73,4.06,27.8,27.8,0,0,1-11,2c-13.83,0-27.66,0-41.49,0-.71,0-1.42-.22-2.12-.18-.33,0-.64.41-1,.63.31.17.61.47.94.5,3.14.26,6.28.64,9.43.67,9.11.09,18.23.18,27.34,0,6.7-.14,13.41-.53,20.08-1.2,3.81-.38,8-.51,10.34-4.54a34.7,34.7,0,0,0,1.9-3,47.17,47.17,0,0,0,4.07-15.56A10,10,0,0,0,473.82,525.93Z" transform="translate(-18.54 -21.14)"/><path class="cls-39" d="M707.38,523.55c6.44,0,12.87-.09,19.31,0a36.54,36.54,0,0,1,7.58,1c3.46.82,4.77,3,4.58,6.54-.36,6.42-2.28,12.46-4.25,18.5a77.48,77.48,0,0,1-5.64,13c-2.38,4.39-6.12,6.27-10.77,6.71-5.4.51-10.82,1-16.24,1.18-7.39.19-14.8.15-22.19,0-4.54-.12-9.07-.68-13.59-1.1a7.71,7.71,0,0,1-2.15-.7c-3.37-1.41-5-4.06-4.08-7.58,2.36-9.54,5-19,9.31-27.89.35-.72.8-1.38,1.13-2.11,2.12-4.64,6.26-5.93,10.81-6.61,7.66-1.15,15.37-1.16,23.09-1.16h3.12Zm-10.5,35.08c3.64,0,7.27,0,10.91,0,3.32,0,5.91-1.18,7-4.59,1.51-4.66,3.07-9.31,4.49-14,.92-3,.56-3.48-2.57-4.18l-.24,0a103.62,103.62,0,0,0-24.49-.43c-3.88.35-6.67,2.17-7.88,6.17-1.27,4.2-2.84,8.3-4.24,12.45-.53,1.57-.14,2.84,1.38,3.5a12.39,12.39,0,0,0,4.35,1.08C689.36,558.73,693.12,558.63,696.88,558.63Z" transform="translate(-18.54 -21.14)"/><path class="cls-39" d="M760.27,507.11H758.8q-42,0-84.1,0a19.45,19.45,0,0,0-7.32,1.53c-6.27,2.5-10.49,7.24-14.14,12.66a63.39,63.39,0,0,0-7.36,16.32c-3.48,10.83-7,21.64-10.3,32.52-.93,3.06-1.11,6.35-1.63,9.53,0,.15-.08.3-.43.55a5,5,0,0,1-.35-.95,31.75,31.75,0,0,1,1-13.64c4-14.46,8.08-28.91,13.63-42.88,1.59-4,3.78-7.75,5.36-11.75,1-2.48,2.88-3.45,5.06-4.3a22.68,22.68,0,0,1,11.59-1.59,61.85,61.85,0,0,0,8.37.44q37.61,0,75.22,0a38.4,38.4,0,0,1,5.12.5,9.07,9.07,0,0,1,1.82.65Z" transform="translate(-18.54 -21.14)"/><path class="cls-39" d="M745.59,525.62c.13,1.17.34,2.35.38,3.52.39,10.51-2,20.46-6.14,30-1.57,3.65-3.54,7.14-5.43,10.65-1.6,3-4.27,4.64-7.45,5.61a54,54,0,0,1-14.88,2.3q-18,.32-36,.21a57.12,57.12,0,0,1-14.14-1.6c-.74-.19-1.46-.48-2.18-.73l.09-.39c1.42.16,2.84.36,4.27.47,3.66.28,7.33.7,11,.74,9.16.11,18.31,0,27.47,0a49.35,49.35,0,0,0,14.69-1.82c3.55-1.1,6.73-2.77,8.67-6.17a1.64,1.64,0,0,1,.58-.58c6.56-3.76,10.37-9.64,12.79-16.6,1.69-4.86,4-9.51,4.8-14.65.5-3.39.73-6.82,1.08-10.24,0-.27,0-.55.05-.82Z" transform="translate(-18.54 -21.14)"/><path class="cls-39" d="M365.47,506.39c.24.87.08,1.27-.71,1.31-1.2.06-2.39.24-3.58.24q-30.9,0-61.8,0c-3.28,0-6.56,0-9.83.22-6.09.37-12.2.53-18.12,2.38-8.36,2.62-15.07,7.4-19.32,15.12a113.15,113.15,0,0,0-5.18,11.84c-4,9.79-7.91,19.64-10.3,30-.84,3.63-1.17,7.38-1.71,11a5.66,5.66,0,0,1-.39-1.08,30.91,30.91,0,0,1,.36-11.2c2.13-12.34,6.37-24.06,10.82-35.7,1.71-4.47,3.34-9,5.45-13.28,2.32-4.7,6-8.07,11.45-8.94a67.61,67.61,0,0,1,8.08-1c9.62-.37,19.25-.79,28.88-.84,21.44-.12,42.88,0,64.32,0Z" transform="translate(-18.54 -21.14)"/><path class="cls-39" d="M342.3,577.31v1c-.09.07-.15.15-.21.16a24.32,24.32,0,0,1-3.31.43c-18.32,0-36.64.07-55,0-6.75,0-13.51-.2-20.16-1.61-1.09-.23-2.15-.59-3.22-.92a1.43,1.43,0,0,1-.89-.73c1.72.26,3.43.59,5.15.75,3.7.35,7.4.85,11.11.86,21.64.08,43.28,0,64.92,0Z" transform="translate(-18.54 -21.14)"/><path class="cls-39" d="M662.75,466.14c-2,.22-4,.55-6,.62-2.8.11-5.6.06-8.4,0a3,3,0,0,0-2.25.84q-17.89,16-35.81,31.91-18.94,16.87-37.86,33.75c-1.6,1.43-2.87,3.22-4.4,4.73-3.49,3.43-7.56,5.63-12.61,5.44a30.14,30.14,0,0,1-4.14-.63c-.26,0-.49-.3-.74-.46a2.87,2.87,0,0,1,.8-.5c.62-.14,1.27-.14,1.89-.26a8.67,8.67,0,0,0,6-4,21.57,21.57,0,0,1,4.37-4.87L625.9,476.8c3.84-3.44,7.62-6.94,11.49-10.35a21.15,21.15,0,0,1,3.63-2.52,2.73,2.73,0,0,1,2-.21,26.26,26.26,0,0,0,10.36,1.49c2.72-.11,5.44,0,8.16,0a6,6,0,0,1,1.23.27Z" transform="translate(-18.54 -21.14)"/><path class="cls-39" d="M528.87,588.1c1.93-5.59,3.84-11.13,5.76-16.66.65-1.88,1.33-3.76,2-5.63a13.67,13.67,0,0,0,1-6.08c0-.39,0-.78,0-1.17l.43-.11a6.09,6.09,0,0,1,.32.92c1,5.47-.35,10.6-2.14,15.7-.94,2.67-1.57,5.44-2.47,8.12a22.9,22.9,0,0,1-1.93,4.22C531.09,588.77,530.6,588.82,528.87,588.1Z" transform="translate(-18.54 -21.14)"/><path class="cls-39" d="M426.74,548.23H406a6.82,6.82,0,0,1-1,0c-1.06-.15-1.54-.81-1.23-1.79,1.08-3.42,2.22-6.83,3.28-10.26.48-1.56.72-3.2,1.27-4.73a26.59,26.59,0,0,1,2-4.32,3.44,3.44,0,0,1,3.24-1.67c14.72,0,29.43,0,44.15.05a24.8,24.8,0,0,1,6.5.88c3.28.92,3.56,2.63,3,5.19a71.17,71.17,0,0,1-3,9.32,18,18,0,0,1-2.55,4.15,3.15,3.15,0,0,1-1.84,1,76.57,76.57,0,0,1-9.22,1.43c-7.94.45-15.89.65-23.83,1Z" transform="translate(-18.54 -21.14)"/><path class="cls-39" d="M390.5,503.79a10.11,10.11,0,0,1,1.46.56,13.82,13.82,0,0,1,1.46,1.05,7.06,7.06,0,0,0,4.45,1.41q36.48-.06,73,0A59.38,59.38,0,0,1,487.41,509a7.92,7.92,0,0,1,1.18.56l-.17.42c-1-.21-2-.5-3.08-.62a73.65,73.65,0,0,0-8.45-.85c-27-.06-53.92,0-80.87-.06a1.43,1.43,0,0,0-1.66,1.19q-10.73,32.83-21.55,65.64c-.69,2.09-1.48,4.14-2.09,6.25-.46,1.56-.72,3.17-1,4.76-.37,1.79-1.26,2.82-2.65,3s-1.68-.29-1.28-1.5q7.67-23.38,15.34-46.77c3.38-10.36,6.68-20.74,10-31.11a2.93,2.93,0,0,0-.14-2.47,15.88,15.88,0,0,1-.89-3.27Z" transform="translate(-18.54 -21.14)"/><path class="cls-39" d="M473.82,525.93a10,10,0,0,1,.92,5.37,47.17,47.17,0,0,1-4.07,15.56,34.7,34.7,0,0,1-1.9,3c-2.34,4-6.53,4.16-10.34,4.54-6.67.67-13.38,1.05-20.08,1.2-9.11.19-18.23.11-27.34,0-3.15,0-6.29-.41-9.43-.67-.32,0-.63-.33-.94-.5.32-.22.63-.61,1-.63.7,0,1.41.18,2.12.18,13.83,0,27.66,0,41.49,0a27.8,27.8,0,0,0,11-2A10.29,10.29,0,0,0,461,548c.74-1.15,2.09-1.92,3.17-2.85a1.61,1.61,0,0,1,.4-.26c3-1.29,4.64-3.76,6-6.5,1.68-3.26,3.17-6.55,3-10.33,0-.6,0-1.2,0-1.8C473.61,526.19,473.68,526.14,473.82,525.93Z" transform="translate(-18.54 -21.14)"/><path class="cls-40" d="M696.88,558.63c-3.76,0-7.52.1-11.27,0a12.39,12.39,0,0,1-4.35-1.08c-1.52-.66-1.91-1.93-1.38-3.5,1.4-4.16,3-8.26,4.24-12.45,1.21-4,4-5.83,7.88-6.17a103.62,103.62,0,0,1,24.49.43l.24,0c3.12.7,3.48,1.16,2.57,4.18-1.42,4.69-3,9.34-4.49,14-1.1,3.41-3.69,4.58-7,4.59C704.15,558.64,700.52,558.63,696.88,558.63Zm-10.2-7.69c1.62.72,2.16.64,2.91-.79a15,15,0,0,0,1.59-4.1,3.27,3.27,0,0,1,3-2.83,48.49,48.49,0,0,1,13.11-.6,12.22,12.22,0,0,0,2.46-.15.71.71,0,0,0,.42-.56.8.8,0,0,0-.42-.61,4.2,4.2,0,0,0-1.18-.12c-3.87-.13-7.75-.12-11.61-.42a48.47,48.47,0,0,1-6.9-1.32c-.65-.15-1.12-.7-1.9-.05s-.52,1.23-.33,1.91a8.8,8.8,0,0,1-.17,5.62A36.66,36.66,0,0,0,686.68,550.94Z" transform="translate(-18.54 -21.14)"/><path class="cls-39" d="M686.68,550.94a36.66,36.66,0,0,1,1-4,8.8,8.8,0,0,0,.17-5.62c-.19-.68-.43-1.27.33-1.91s1.24-.09,1.9.05a48.47,48.47,0,0,0,6.9,1.32c3.86.3,7.74.29,11.61.42a4.2,4.2,0,0,1,1.18.12.8.8,0,0,1,.42.61.71.71,0,0,1-.42.56,12.22,12.22,0,0,1-2.46.15,48.49,48.49,0,0,0-13.11.6,3.27,3.27,0,0,0-3,2.83,15,15,0,0,1-1.59,4.1C688.84,551.58,688.3,551.66,686.68,550.94Z" transform="translate(-18.54 -21.14)"/><path class="cls-41" d="M976,910.43c-.11.84-.2,1.69-.33,2.53a73.73,73.73,0,0,1-3.21,12.24c-1.77,5.17-3.56,10.33-5.55,15.42a22.4,22.4,0,0,1-6.08,8.75,16.13,16.13,0,0,1-8.87,3.72,141.79,141.79,0,0,1-17.27,1c-5.09,0-10.17,0-15.26,0a115.61,115.61,0,0,1-14.88-1c-.76-.11-1.52-.28-2.27-.43-2.91-.56-4.12-2.71-4.84-5.25a13.38,13.38,0,0,1,.17-6.62,160,160,0,0,1,5.18-17.29c1-2.84,1.9-5.7,3.06-8.46a24,24,0,0,1,6.61-9.31A15.3,15.3,0,0,1,922.55,902q22.16,0,44.31,0a14.51,14.51,0,0,1,3.06.32,7.06,7.06,0,0,1,5.79,6.06l.26,1.36Zm-35.28,4.64V915H939a83,83,0,0,0-12.39.62c-2.44.37-4.66,1.06-5.8,3.55-.18.39-.42.75-.61,1.13a76.73,76.73,0,0,0-5,15,3.28,3.28,0,0,0,2.19,4.07,4.14,4.14,0,0,0,1.16.37c2.43.23,4.86.53,7.3.59,4,.1,7.94.12,11.91,0,2.91-.08,5.82-.36,8.72-.63a6.79,6.79,0,0,0,5.78-3.6,41.59,41.59,0,0,0,3-7,39.14,39.14,0,0,0,2.28-9.93c.11-1.91-.6-3.07-2.46-3.51a19.61,19.61,0,0,0-4.07-.52C947.6,915,944.14,915.06,940.69,915.06Zm28.39-8.83,0-.21a4.87,4.87,0,0,0-1-.35,20.61,20.61,0,0,0-2.75-.27l-40.38,0a33.2,33.2,0,0,1-4.49-.24,12.18,12.18,0,0,0-6.22.85,4.12,4.12,0,0,0-2.71,2.31c-.85,2.15-2,4.16-2.88,6.31a223.52,223.52,0,0,0-7.32,23,17,17,0,0,0-.55,7.32,2.71,2.71,0,0,0,.19.51c.19-.13.22-.21.23-.29a40.3,40.3,0,0,1,.88-5.12c1.77-5.84,3.66-11.65,5.53-17.46a34,34,0,0,1,4-8.76c2-2.91,4.22-5.45,7.59-6.79a10.44,10.44,0,0,1,3.93-.82h45.93Zm-7.88,9.94H961c0,.15,0,.29,0,.44-.19,1.83-.31,3.67-.58,5.49-.41,2.76-1.67,5.26-2.58,7.86-1.3,3.74-3.34,6.89-6.87,8.91a.88.88,0,0,0-.31.31,7.5,7.5,0,0,1-4.65,3.31,26.49,26.49,0,0,1-7.89,1c-4.92,0-9.83,0-14.75,0-2,0-3.94-.25-5.9-.4-.77-.06-1.53-.17-2.29-.25l0,.21c.39.13.77.29,1.17.39a30.66,30.66,0,0,0,7.59.86q9.66,0,19.31-.11a29,29,0,0,0,8-1.23,6.33,6.33,0,0,0,4-3c1-1.89,2.07-3.76,2.91-5.72a37,37,0,0,0,3.29-16.12C961.38,917.43,961.27,916.81,961.2,916.18Z" transform="translate(-18.54 -21.14)"/><path class="cls-42" d="M683.14,941.6c.19-1,.37-2,.58-3.07a105.25,105.25,0,0,1,4.91-15.82c1-2.66,2-5.37,3.23-7.91a20.22,20.22,0,0,1,12.43-10.69,26.42,26.42,0,0,1,6.2-1c4.67-.29,9.34-.51,14-.55,12.13-.1,24.26-.08,36.38-.1a2.64,2.64,0,0,1,1.11.25.77.77,0,0,1,.49,1c-1.25,3.63-2.5,7.25-3.68,10.9a1.55,1.55,0,0,1-1.68,1.21h-.64c-11.76,0-23.53,0-35.29,0a63.85,63.85,0,0,0-10,.7,6.41,6.41,0,0,0-4.62,3,36.46,36.46,0,0,0-3.69,8,51.82,51.82,0,0,0-1.55,5,25.47,25.47,0,0,0-.61,4.44c-.09,1.73,1.06,2.66,3.1,3a70.31,70.31,0,0,0,11.85.7c11,0,22,0,33,0a6,6,0,0,1,.64,0,.74.74,0,0,1,.67,1c-1.21,3.71-2.4,7.42-3.66,11.11-.47,1.39-.72,1.48-2.18,1.48-12.49,0-25,0-37.48,0a76.43,76.43,0,0,1-15.11-1.28c-1-.2-1.95-.51-2.92-.77-3-.81-4.51-2.93-5.26-5.77-.08-.31-.17-.61-.26-.92Zm74-35.75h-.84c-11.51,0-23,0-34.52,0-5.17,0-10.34.25-15.5.45a36.29,36.29,0,0,0-4.34.54,8.15,8.15,0,0,0-6.15,4.8c-1.13,2.3-2,4.73-2.93,7.13-2.39,6.25-4.66,12.54-5.81,19.16a16.59,16.59,0,0,0-.2,6,3,3,0,0,0,.21.58c.29-1.93.47-3.94.92-5.89a105.43,105.43,0,0,1,5.53-16.09,60.74,60.74,0,0,1,2.78-6.36,17.1,17.1,0,0,1,10.37-8.12,40,40,0,0,1,9.72-1.28c1.75-.11,3.52-.11,5.28-.12h33.17c.64,0,1.28-.1,1.92-.13C757.2,906.54,757.28,906.32,757.16,905.85Zm-12.44,38.07h-.84c-11.62,0-23.23,0-34.85,0-2,0-4-.28-6-.46-.93-.09-1.84-.27-2.77-.4a.77.77,0,0,0,.48.39c.57.18,1.14.37,1.73.49a52.71,52.71,0,0,0,10.82.87c9.83,0,19.67,0,29.5,0a13.06,13.06,0,0,0,1.78-.23s.06,0,.11-.09Z" transform="translate(-18.54 -21.14)"/><path class="cls-43" d="M926.37,880.67a2.63,2.63,0,0,1-.41.73c-5.37,4.77-10.71,9.59-16.15,14.28q-23,19.83-46,39.58a2.26,2.26,0,0,0-.64.93q-2,5.89-4,11.81c-.5,1.5-1,3-1.45,4.53-.29,1-.52,1.29-1.82,1.3-3.48,0-7,0-10.43,0H842c-.94,0-1.09-.17-.83-1.12.36-1.32.74-2.64,1.16-3.95q1.92-5.93,3.88-11.85a1.94,1.94,0,0,0,0-1.42,76.1,76.1,0,0,0-4.72-9.06c-4.17-7.44-8.27-14.92-12.39-22.39-.19-.35-.33-.73-.49-1.09l.14-.19a4.55,4.55,0,0,1,1,.39c1.35.94,2.67,1.94,4,2.88a2.45,2.45,0,0,0,2.25.42,2.73,2.73,0,0,1,.83,0h9.13c-.18-.56-.58-.65-1-.65-2.3,0-4.6-.08-6.89,0a10,10,0,0,1-6.36-2c-.51-.36-1-.75-1.5-1.13l.08-.17.67,0c5.8,0,11.59,0,17.39,0a.91.91,0,0,1,1,.62q4.22,8.53,8.5,17c.28.55.64,1.06.95,1.61a.51.51,0,0,0,.8.22,10.42,10.42,0,0,0,1.53-1.06c1.66-1.52,3.25-3.12,4.93-4.62q19.33-17.3,38.69-34.57c.35-.31.67-.64,1-1Zm-9.64,3.58,0-.36a3.23,3.23,0,0,0-.66-.14c-1.46,0-2.92-.05-4.38,0a14.1,14.1,0,0,1-5.56-.8,1.46,1.46,0,0,0-1.09.11,11.35,11.35,0,0,0-2,1.35C901,886.24,899,888.12,897,890l-33.43,30a11.58,11.58,0,0,0-2.34,2.62,4.66,4.66,0,0,1-3.23,2.15c-.33.07-.68.07-1,.14a1.54,1.54,0,0,0-.43.27c.13.08.25.22.4.24a16.18,16.18,0,0,0,2.22.34,9,9,0,0,0,6.77-2.92c.82-.81,1.51-1.77,2.36-2.54q10.14-9.08,20.32-18.12,9.61-8.56,19.22-17.13a1.63,1.63,0,0,1,1.21-.45c1.5,0,3,.05,4.51,0C914.58,884.54,915.66,884.36,916.73,884.25Zm-71.87,65.47c.93.39,1.19.36,1.62-.37a12.29,12.29,0,0,0,1-2.27c.48-1.44.82-2.93,1.33-4.36,1-2.74,1.69-5.49,1.15-8.43a3.27,3.27,0,0,0-.17-.49l-.23.06c0,.21,0,.42,0,.63a7.34,7.34,0,0,1-.55,3.26c-.37,1-.73,2-1.08,3C846.93,943.74,845.9,946.71,844.87,949.71Z" transform="translate(-18.54 -21.14)"/><path class="cls-44" d="M816.41,934.2l.6.33a6.33,6.33,0,0,1,3.71,5.13c.33,2.31.75,4.61,1.11,6.91q1.44,9.31,2.87,18.63c.1.63-.38.73-.79.87a1.41,1.41,0,0,1-.45,0c-4.87,0-9.75,0-14.62,0-.68,0-1.08-.22-1.24-.84-.57-2.15-1.23-4.29-1.64-6.47-.94-5-1.77-10-2.58-15.09-.19-1.16-.62-1.9-1.86-2-.55,0-1.1-.21-1.65-.21-8.39,0-16.79,0-25.18,0a2,2,0,0,0-2.1,1.43c-.45,1.29-.75,2.63-1.19,3.93-.72,2.11-1.52,4.19-2.23,6.3a1.73,1.73,0,0,1-1.86,1.24H754.15c-.68,0-1-.52-.76-1.29.55-1.8,1.1-3.61,1.68-5.4q7-21.62,14-43.24c.39-1.21.78-1.49,2-1.49q19.26,0,38.52,0c1.78,0,3.56-.19,5.34-.17a31.19,31.19,0,0,1,4.48.36c2.22.35,4.43.78,6.61,1.31a4.06,4.06,0,0,1,2.12,1.23,7.16,7.16,0,0,1,1.49,3.13,18.72,18.72,0,0,1-.87,8.87,58,58,0,0,1-4.13,10.24,12.32,12.32,0,0,1-7.35,6ZM790,928.31v.11c4.26-.16,8.53-.27,12.79-.51a41.1,41.1,0,0,0,4.95-.77,1.69,1.69,0,0,0,1-.54,9.65,9.65,0,0,0,1.37-2.23,38.2,38.2,0,0,0,1.61-5c.32-1.37.17-2.29-1.59-2.79a13.31,13.31,0,0,0-3.49-.47c-7.9,0-15.8,0-23.7,0a1.85,1.85,0,0,0-1.74.89,14.27,14.27,0,0,0-1.08,2.32c-.29.82-.42,1.7-.68,2.54-.57,1.84-1.18,3.67-1.76,5.51-.17.53.09.88.66,1a3.66,3.66,0,0,0,.51,0Zm-19.46-23.85-.22.19a8.53,8.53,0,0,0,.48,1.75,1.57,1.57,0,0,1,.07,1.33c-1.8,5.56-3.57,11.14-5.39,16.7q-4.1,12.56-8.23,25.1c-.21.65,0,.9.69.81s1.23-.66,1.42-1.62.32-1.72.56-2.56c.33-1.13.75-2.23,1.12-3.35q5.79-17.62,11.57-35.24a.77.77,0,0,1,.89-.64c14.47,0,28.94,0,43.41,0a39.54,39.54,0,0,1,4.54.46c.56.07,1.1.22,1.65.33l.09-.23a4.25,4.25,0,0,0-.63-.3,31.88,31.88,0,0,0-8.9-1.15q-19.58,0-39.16,0a3.79,3.79,0,0,1-2.39-.76,7.42,7.42,0,0,0-.78-.56A5.43,5.43,0,0,0,770.59,904.46Zm44.73,11.88c-.08.11-.11.14-.11.17,0,.32,0,.64,0,1a11,11,0,0,1-1.61,5.55,6.84,6.84,0,0,1-3.25,3.49.86.86,0,0,0-.21.14,8.38,8.38,0,0,0-1.7,1.53,5.53,5.53,0,0,1-2.54,2.18,14.92,14.92,0,0,1-5.91,1.05c-7.42,0-14.85,0-22.27,0-.38,0-.76-.12-1.14-.1-.18,0-.35.22-.52.34.17.09.33.25.5.27,1.69.14,3.37.34,5.06.36,4.89,0,9.79.09,14.68,0,3.6-.08,7.2-.28,10.78-.64,2-.21,4.3-.27,5.55-2.44a18.62,18.62,0,0,0,1-1.62,25.32,25.32,0,0,0,2.18-8.35A5.35,5.35,0,0,0,815.32,916.34Z" transform="translate(-18.54 -21.14)"/><path class="cls-39" d="M940.69,915.06c3.45,0,6.91,0,10.36,0a19.61,19.61,0,0,1,4.07.52c1.86.44,2.56,1.6,2.46,3.51A39.14,39.14,0,0,1,955.3,929a41.59,41.59,0,0,1-3,7,6.79,6.79,0,0,1-5.78,3.6c-2.9.27-5.81.56-8.72.63-4,.1-7.94.08-11.91,0-2.44-.06-4.87-.36-7.3-.59a4.14,4.14,0,0,1-1.16-.37,3.28,3.28,0,0,1-2.19-4.07,76.73,76.73,0,0,1,5-15c.19-.39.43-.74.61-1.13,1.14-2.49,3.36-3.18,5.8-3.55A83,83,0,0,1,939,915h1.67Zm-5.63,18.83h5.86c1.78,0,3.17-.63,3.77-2.46.81-2.5,1.65-5,2.41-7.52.49-1.62.3-1.87-1.38-2.25l-.13,0a55.62,55.62,0,0,0-13.15-.23,4.42,4.42,0,0,0-4.23,3.31c-.68,2.25-1.52,4.45-2.28,6.69a1.36,1.36,0,0,0,.74,1.88,6.65,6.65,0,0,0,2.33.58C931,933.95,933,933.89,935.05,933.89Z" transform="translate(-18.54 -21.14)"/><path class="cls-39" d="M969.08,906.24H923.15a10.44,10.44,0,0,0-3.93.82c-3.37,1.34-5.63,3.88-7.59,6.79a34,34,0,0,0-4,8.76c-1.87,5.81-3.76,11.62-5.53,17.46a40.3,40.3,0,0,0-.88,5.12c0,.08,0,.16-.23.29a2.71,2.71,0,0,1-.19-.51,17,17,0,0,1,.55-7.32,223.52,223.52,0,0,1,7.32-23c.85-2.14,2-4.16,2.88-6.31A4.12,4.12,0,0,1,914.3,906a12.18,12.18,0,0,1,6.22-.85,33.2,33.2,0,0,0,4.49.24l40.38,0a20.61,20.61,0,0,1,2.75.27,4.87,4.87,0,0,1,1,.35Z" transform="translate(-18.54 -21.14)"/><path class="cls-39" d="M961.2,916.18c.07.63.18,1.26.2,1.89a37,37,0,0,1-3.29,16.12c-.84,2-1.9,3.83-2.91,5.72a6.33,6.33,0,0,1-4,3,29,29,0,0,1-8,1.23q-9.65.17-19.31.11a30.66,30.66,0,0,1-7.59-.86c-.4-.1-.78-.26-1.17-.39l0-.21c.76.09,1.53.19,2.29.25,2,.15,3.93.37,5.9.4,4.91.06,9.83,0,14.75,0a26.49,26.49,0,0,0,7.89-1,7.5,7.5,0,0,0,4.65-3.31.88.88,0,0,1,.31-.31c3.52-2,5.57-5.17,6.87-8.91.91-2.61,2.17-5.1,2.58-7.86.27-1.82.39-3.66.58-5.49,0-.15,0-.29,0-.44Z" transform="translate(-18.54 -21.14)"/><path class="cls-39" d="M757.16,905.85c.13.47,0,.68-.38.7-.64,0-1.28.13-1.92.13H721.68c-1.76,0-3.52,0-5.28.12a40,40,0,0,0-9.72,1.28,17.1,17.1,0,0,0-10.37,8.12,60.74,60.74,0,0,0-2.78,6.36A105.43,105.43,0,0,0,688,938.65c-.45,2-.63,4-.92,5.89a3,3,0,0,1-.21-.58,16.59,16.59,0,0,1,.2-6c1.14-6.63,3.42-12.92,5.81-19.16.92-2.4,1.79-4.83,2.93-7.13a8.15,8.15,0,0,1,6.15-4.8,36.29,36.29,0,0,1,4.34-.54c5.17-.2,10.33-.42,15.5-.45,11.51-.07,23,0,34.52,0Z" transform="translate(-18.54 -21.14)"/><path class="cls-39" d="M744.72,943.92v.55s-.08.08-.11.09a13.06,13.06,0,0,1-1.78.23c-9.83,0-19.67,0-29.5,0a52.71,52.71,0,0,1-10.82-.87c-.58-.12-1.16-.32-1.73-.49a.77.77,0,0,1-.48-.39c.92.14,1.84.32,2.77.4,2,.19,4,.45,6,.46,11.62,0,23.23,0,34.85,0Z" transform="translate(-18.54 -21.14)"/><path class="cls-39" d="M916.73,884.25c-1.07.12-2.15.29-3.22.34-1.5.06-3,0-4.51,0a1.63,1.63,0,0,0-1.21.45q-9.6,8.58-19.22,17.13-10.17,9.05-20.32,18.12c-.86.77-1.54,1.73-2.36,2.54a9,9,0,0,1-6.77,2.92,16.18,16.18,0,0,1-2.22-.34c-.14,0-.26-.16-.4-.24a1.54,1.54,0,0,1,.43-.27c.33-.07.68-.07,1-.14a4.66,4.66,0,0,0,3.23-2.15,11.58,11.58,0,0,1,2.34-2.62L897,890c2.06-1.85,4.09-3.73,6.17-5.56a11.35,11.35,0,0,1,2-1.35,1.46,1.46,0,0,1,1.09-.11,14.1,14.1,0,0,0,5.56.8c1.46-.06,2.92,0,4.38,0a3.23,3.23,0,0,1,.66.14Z" transform="translate(-18.54 -21.14)"/><path class="cls-39" d="M844.87,949.71c1-3,2.06-6,3.09-8.94.35-1,.72-2,1.08-3a7.34,7.34,0,0,0,.55-3.26c0-.21,0-.42,0-.63l.23-.06a3.27,3.27,0,0,1,.17.49c.54,2.93-.19,5.69-1.15,8.43-.5,1.43-.84,2.92-1.33,4.36a12.29,12.29,0,0,1-1,2.27C846.06,950.08,845.79,950.1,844.87,949.71Z" transform="translate(-18.54 -21.14)"/><path class="cls-39" d="M790,928.31H778.9a3.66,3.66,0,0,1-.51,0c-.57-.08-.83-.43-.66-1,.58-1.84,1.19-3.66,1.76-5.51.26-.84.39-1.72.68-2.54a14.27,14.27,0,0,1,1.08-2.32,1.85,1.85,0,0,1,1.74-.89c7.9,0,15.8,0,23.7,0a13.31,13.31,0,0,1,3.49.47c1.76.49,1.91,1.41,1.59,2.79a38.2,38.2,0,0,1-1.61,5,9.65,9.65,0,0,1-1.37,2.23,1.69,1.69,0,0,1-1,.54,41.1,41.1,0,0,1-4.95.77c-4.26.24-8.53.35-12.79.51Z" transform="translate(-18.54 -21.14)"/><path class="cls-39" d="M770.59,904.46a5.43,5.43,0,0,1,.78.3,7.42,7.42,0,0,1,.78.56,3.79,3.79,0,0,0,2.39.76q19.58,0,39.16,0a31.88,31.88,0,0,1,8.9,1.15,4.25,4.25,0,0,1,.63.3l-.09.23c-.55-.11-1.1-.27-1.65-.33A39.54,39.54,0,0,0,817,907c-14.47,0-28.94,0-43.41,0a.77.77,0,0,0-.89.64q-5.76,17.62-11.57,35.24c-.37,1.12-.79,2.22-1.12,3.35-.24.84-.38,1.7-.56,2.56s-.68,1.51-1.42,1.62-.9-.16-.69-.81q4.12-12.55,8.23-25.1c1.81-5.56,3.59-11.13,5.39-16.7a1.57,1.57,0,0,0-.07-1.33,8.53,8.53,0,0,1-.48-1.75Z" transform="translate(-18.54 -21.14)"/><path class="cls-39" d="M815.32,916.34a5.35,5.35,0,0,1,.49,2.88,25.32,25.32,0,0,1-2.18,8.35,18.62,18.62,0,0,1-1,1.62c-1.26,2.17-3.51,2.23-5.55,2.44-3.58.36-7.18.57-10.78.64-4.89.1-9.78.06-14.68,0-1.69,0-3.38-.22-5.06-.36-.17,0-.34-.17-.5-.27.17-.12.34-.33.52-.34.38,0,.76.1,1.14.1,7.42,0,14.85,0,22.27,0a14.92,14.92,0,0,0,5.91-1.05,5.53,5.53,0,0,0,2.54-2.18,8.38,8.38,0,0,1,1.7-1.53.86.86,0,0,1,.21-.14,6.84,6.84,0,0,0,3.25-3.49,11,11,0,0,0,1.61-5.55c0-.32,0-.64,0-1C815.2,916.48,815.24,916.45,815.32,916.34Z" transform="translate(-18.54 -21.14)"/><path class="cls-45" d="M935.05,933.89c-2,0-4,.05-6,0a6.65,6.65,0,0,1-2.33-.58,1.36,1.36,0,0,1-.74-1.88c.75-2.23,1.6-4.43,2.28-6.69a4.42,4.42,0,0,1,4.23-3.31,55.62,55.62,0,0,1,13.15.23l.13,0c1.68.38,1.87.62,1.38,2.25-.76,2.52-1.6,5-2.41,7.52-.59,1.83-2,2.46-3.77,2.46Zm-5.48-4.13c.87.39,1.16.34,1.56-.42a8.07,8.07,0,0,0,.86-2.2,1.76,1.76,0,0,1,1.63-1.52,26,26,0,0,1,7-.32,6.56,6.56,0,0,0,1.32-.08.38.38,0,0,0,.23-.3.43.43,0,0,0-.23-.33,2.25,2.25,0,0,0-.63-.07c-2.08-.07-4.16-.06-6.23-.22a26,26,0,0,1-3.7-.71c-.35-.08-.6-.38-1,0s-.28.66-.18,1a4.72,4.72,0,0,1-.09,3A19.68,19.68,0,0,0,929.58,929.77Z" transform="translate(-18.54 -21.14)"/><path class="cls-39" d="M929.58,929.77a19.68,19.68,0,0,1,.55-2.15,4.72,4.72,0,0,0,.09-3c-.1-.36-.23-.68.18-1s.67-.05,1,0a26,26,0,0,0,3.7.71c2.07.16,4.15.16,6.23.22a2.25,2.25,0,0,1,.63.07.43.43,0,0,1,.23.33.38.38,0,0,1-.23.3,6.56,6.56,0,0,1-1.32.08,26,26,0,0,0-7,.32,1.76,1.76,0,0,0-1.63,1.52,8.07,8.07,0,0,1-.86,2.2C930.74,930.11,930.45,930.15,929.58,929.77Z" transform="translate(-18.54 -21.14)"/><path class="cls-46" d="M646.41,913.75c-.11.84-.2,1.69-.33,2.53a73.73,73.73,0,0,1-3.21,12.24c-1.77,5.17-3.56,10.33-5.55,15.42a22.4,22.4,0,0,1-6.08,8.75,16.13,16.13,0,0,1-8.87,3.72,141.79,141.79,0,0,1-17.27,1c-5.09,0-10.17,0-15.26,0a115.61,115.61,0,0,1-14.88-1c-.76-.11-1.52-.28-2.27-.43-2.91-.56-4.12-2.71-4.84-5.25a13.38,13.38,0,0,1,.17-6.62,160,160,0,0,1,5.18-17.29c1-2.84,1.9-5.7,3.06-8.46a24,24,0,0,1,6.61-9.31A15.3,15.3,0,0,1,593,905.36q22.16,0,44.31,0a14.51,14.51,0,0,1,3.06.32,7.06,7.06,0,0,1,5.79,6.06l.26,1.36Zm-35.28,4.64v-.11h-1.67a83,83,0,0,0-12.39.62c-2.44.37-4.66,1.06-5.8,3.55-.18.39-.42.75-.61,1.13a76.73,76.73,0,0,0-5,15,3.28,3.28,0,0,0,2.19,4.07A4.14,4.14,0,0,0,589,943c2.43.23,4.86.53,7.3.59,4,.1,7.94.12,11.91,0,2.91-.08,5.82-.36,8.72-.63a6.79,6.79,0,0,0,5.78-3.6,41.59,41.59,0,0,0,3-7,39.14,39.14,0,0,0,2.28-9.93c.11-1.91-.6-3.07-2.46-3.51a19.61,19.61,0,0,0-4.07-.52C618,918.34,614.59,918.39,611.13,918.39Zm28.39-8.83,0-.21a4.87,4.87,0,0,0-1-.35,20.61,20.61,0,0,0-2.75-.27l-40.38,0a33.2,33.2,0,0,1-4.49-.24,12.18,12.18,0,0,0-6.22.85,4.12,4.12,0,0,0-2.71,2.31c-.85,2.15-2,4.16-2.88,6.31a223.52,223.52,0,0,0-7.32,23,17,17,0,0,0-.55,7.32,2.71,2.71,0,0,0,.19.51c.19-.13.22-.21.23-.29a40.3,40.3,0,0,1,.88-5.12c1.77-5.84,3.66-11.65,5.53-17.46a34,34,0,0,1,4-8.76c2-2.91,4.22-5.45,7.59-6.79a10.44,10.44,0,0,1,3.93-.82h45.93Zm-7.88,9.94h-.17c0,.15,0,.29,0,.44-.19,1.83-.31,3.67-.58,5.49-.41,2.76-1.67,5.26-2.58,7.86-1.3,3.74-3.34,6.89-6.87,8.91a.88.88,0,0,0-.31.31,7.5,7.5,0,0,1-4.65,3.31,26.49,26.49,0,0,1-7.89,1c-4.92,0-9.83,0-14.75,0-2,0-3.94-.25-5.9-.4-.77-.06-1.53-.17-2.29-.25l0,.21c.39.13.77.29,1.17.39a30.66,30.66,0,0,0,7.59.86q9.66,0,19.31-.11a29,29,0,0,0,8-1.23,6.33,6.33,0,0,0,4-3c1-1.89,2.07-3.76,2.91-5.72a37,37,0,0,0,3.29-16.12C631.83,920.76,631.72,920.13,631.65,919.5Z" transform="translate(-18.54 -21.14)"/><path class="cls-47" d="M353.59,944.93c.19-1,.37-2,.58-3.07A105.25,105.25,0,0,1,359.08,926c1-2.66,2-5.37,3.23-7.91a20.22,20.22,0,0,1,12.43-10.69,26.42,26.42,0,0,1,6.2-1c4.67-.29,9.34-.51,14-.55,12.13-.1,24.26-.08,36.38-.1a2.64,2.64,0,0,1,1.11.25.77.77,0,0,1,.49,1c-1.25,3.63-2.5,7.25-3.68,10.9a1.55,1.55,0,0,1-1.68,1.21h-.64c-11.76,0-23.53,0-35.29,0a63.85,63.85,0,0,0-10,.7,6.41,6.41,0,0,0-4.62,3,36.46,36.46,0,0,0-3.69,8,51.82,51.82,0,0,0-1.55,5,25.47,25.47,0,0,0-.61,4.44c-.09,1.73,1.06,2.66,3.1,3a70.31,70.31,0,0,0,11.85.7c11,0,22,0,33,0a6,6,0,0,1,.64,0,.74.74,0,0,1,.67,1c-1.21,3.71-2.4,7.42-3.66,11.11-.47,1.39-.72,1.48-2.18,1.48-12.49,0-25,0-37.48,0A76.43,76.43,0,0,1,362,956.39c-1-.2-1.95-.51-2.92-.77-3-.81-4.51-2.93-5.26-5.77-.08-.31-.17-.61-.26-.92Zm74-35.75h-.84c-11.51,0-23,0-34.52,0-5.17,0-10.34.25-15.5.45a36.29,36.29,0,0,0-4.34.54,8.15,8.15,0,0,0-6.15,4.8c-1.13,2.3-2,4.73-2.93,7.13-2.39,6.25-4.66,12.54-5.81,19.16a16.59,16.59,0,0,0-.2,6,3,3,0,0,0,.21.58c.29-1.93.47-3.94.92-5.89A105.43,105.43,0,0,1,364,925.89a60.74,60.74,0,0,1,2.78-6.36,17.1,17.1,0,0,1,10.37-8.12,40,40,0,0,1,9.72-1.28c1.75-.11,3.52-.11,5.28-.12H425.3c.64,0,1.28-.1,1.92-.13C427.64,909.86,427.73,909.65,427.6,909.18Zm-12.44,38.07h-.84c-11.62,0-23.23,0-34.85,0-2,0-4-.28-6-.46-.93-.09-1.84-.27-2.77-.4a.77.77,0,0,0,.48.39c.57.18,1.14.37,1.73.49a52.71,52.71,0,0,0,10.82.87c9.83,0,19.67,0,29.5,0a13.06,13.06,0,0,0,1.78-.23s.06,0,.11-.09Z" transform="translate(-18.54 -21.14)"/><path class="cls-48" d="M596.81,884a2.63,2.63,0,0,1-.41.73c-5.37,4.77-10.71,9.59-16.15,14.28q-23,19.83-46,39.58a2.26,2.26,0,0,0-.64.93q-2,5.89-4,11.81c-.5,1.5-1,3-1.45,4.53-.29,1-.52,1.29-1.82,1.3-3.48,0-7,0-10.43,0h-3.41c-.94,0-1.09-.17-.83-1.12.36-1.32.74-2.64,1.16-3.95q1.92-5.93,3.88-11.85a1.94,1.94,0,0,0,0-1.42,76.1,76.1,0,0,0-4.72-9.06c-4.17-7.44-8.27-14.92-12.39-22.39-.19-.35-.33-.73-.49-1.09l.14-.19a4.55,4.55,0,0,1,1,.39c1.35.94,2.67,1.94,4,2.88a2.45,2.45,0,0,0,2.25.42,2.73,2.73,0,0,1,.83,0h9.13c-.18-.56-.58-.65-1-.65-2.3,0-4.6-.08-6.89,0a10,10,0,0,1-6.36-2c-.51-.36-1-.75-1.5-1.13l.08-.17.67,0c5.8,0,11.59,0,17.39,0a.91.91,0,0,1,1,.62q4.22,8.53,8.5,17c.28.55.64,1.06.95,1.61a.51.51,0,0,0,.8.22,10.42,10.42,0,0,0,1.53-1.06c1.66-1.52,3.25-3.12,4.93-4.62q19.33-17.3,38.69-34.57c.35-.31.67-.64,1-1Zm-9.64,3.58,0-.36a3.23,3.23,0,0,0-.66-.14c-1.46,0-2.92-.05-4.38,0a14.1,14.1,0,0,1-5.56-.8,1.46,1.46,0,0,0-1.09.11,11.35,11.35,0,0,0-2,1.35c-2.08,1.83-4.11,3.71-6.17,5.56l-33.43,30a11.58,11.58,0,0,0-2.34,2.62,4.66,4.66,0,0,1-3.23,2.15c-.33.07-.68.07-1,.14a1.54,1.54,0,0,0-.43.27c.13.08.25.22.4.24a16.18,16.18,0,0,0,2.22.34,9,9,0,0,0,6.77-2.92c.82-.81,1.51-1.77,2.36-2.54q10.14-9.08,20.32-18.12,9.61-8.56,19.22-17.13a1.63,1.63,0,0,1,1.21-.45c1.5,0,3,.05,4.51,0C585,887.87,586.1,887.69,587.18,887.57ZM515.31,953c.93.39,1.19.36,1.62-.37a12.29,12.29,0,0,0,1-2.27c.48-1.44.82-2.93,1.33-4.36,1-2.74,1.69-5.49,1.15-8.43a3.27,3.27,0,0,0-.17-.49l-.23.06c0,.21,0,.42,0,.63a7.34,7.34,0,0,1-.55,3.26c-.37,1-.73,2-1.08,3C517.37,947.07,516.35,950,515.31,953Z" transform="translate(-18.54 -21.14)"/><path class="cls-49" d="M486.85,937.52l.6.33a6.33,6.33,0,0,1,3.71,5.13c.33,2.31.75,4.61,1.11,6.91q1.44,9.31,2.87,18.63c.1.63-.38.73-.79.87a1.41,1.41,0,0,1-.45,0c-4.87,0-9.75,0-14.62,0-.68,0-1.08-.22-1.24-.84-.57-2.15-1.23-4.29-1.64-6.47-.94-5-1.77-10-2.58-15.09-.19-1.16-.62-1.9-1.86-2-.55,0-1.1-.21-1.65-.21-8.39,0-16.79,0-25.18,0a2,2,0,0,0-2.1,1.43c-.45,1.29-.75,2.63-1.19,3.93-.72,2.11-1.52,4.19-2.23,6.3a1.73,1.73,0,0,1-1.86,1.24H424.59c-.68,0-1-.52-.76-1.29.55-1.8,1.1-3.61,1.68-5.4q7-21.62,14-43.24c.39-1.21.78-1.49,2-1.49q19.26,0,38.52,0c1.78,0,3.56-.19,5.34-.17a31.19,31.19,0,0,1,4.48.36c2.22.35,4.43.78,6.61,1.31A4.06,4.06,0,0,1,498.6,909a7.16,7.16,0,0,1,1.49,3.13,18.72,18.72,0,0,1-.87,8.87,58,58,0,0,1-4.13,10.24,12.32,12.32,0,0,1-7.35,6Zm-26.36-5.88v.11c4.26-.16,8.53-.27,12.79-.51a41.1,41.1,0,0,0,4.95-.77,1.69,1.69,0,0,0,1-.54,9.65,9.65,0,0,0,1.37-2.23,38.2,38.2,0,0,0,1.61-5c.32-1.37.17-2.29-1.59-2.79a13.31,13.31,0,0,0-3.49-.47c-7.9,0-15.8,0-23.7,0a1.85,1.85,0,0,0-1.74.89,14.27,14.27,0,0,0-1.08,2.32c-.29.82-.42,1.7-.68,2.54-.57,1.84-1.18,3.67-1.76,5.51-.17.53.09.88.66,1a3.66,3.66,0,0,0,.51,0ZM441,907.79l-.22.19a8.53,8.53,0,0,0,.48,1.75,1.57,1.57,0,0,1,.07,1.33c-1.8,5.56-3.57,11.14-5.39,16.7q-4.1,12.56-8.23,25.1c-.21.65,0,.9.69.81s1.23-.66,1.42-1.62.32-1.72.56-2.56c.33-1.13.75-2.23,1.12-3.35q5.79-17.62,11.57-35.24a.77.77,0,0,1,.89-.64c14.47,0,28.94,0,43.41,0a39.54,39.54,0,0,1,4.54.46c.56.07,1.1.22,1.65.33l.09-.23a4.25,4.25,0,0,0-.63-.3,31.88,31.88,0,0,0-8.9-1.15q-19.58,0-39.16,0a3.79,3.79,0,0,1-2.39-.76,7.42,7.42,0,0,0-.78-.56A5.43,5.43,0,0,0,441,907.79Zm44.73,11.88c-.08.11-.11.14-.11.17,0,.32,0,.64,0,1a11,11,0,0,1-1.61,5.55,6.84,6.84,0,0,1-3.25,3.49.86.86,0,0,0-.21.14,8.38,8.38,0,0,0-1.7,1.53,5.53,5.53,0,0,1-2.54,2.18,14.92,14.92,0,0,1-5.91,1.05c-7.42,0-14.85,0-22.27,0-.38,0-.76-.12-1.14-.1-.18,0-.35.22-.52.34.17.09.33.25.5.27,1.69.14,3.37.34,5.06.36,4.89,0,9.79.09,14.68,0,3.6-.08,7.2-.28,10.78-.64,2-.21,4.3-.27,5.55-2.44a18.62,18.62,0,0,0,1-1.62,25.32,25.32,0,0,0,2.18-8.35A5.35,5.35,0,0,0,485.76,919.67Z" transform="translate(-18.54 -21.14)"/><path class="cls-39" d="M611.13,918.39c3.45,0,6.91,0,10.36,0a19.61,19.61,0,0,1,4.07.52c1.86.44,2.56,1.6,2.46,3.51a39.14,39.14,0,0,1-2.28,9.93,41.59,41.59,0,0,1-3,7,6.79,6.79,0,0,1-5.78,3.6c-2.9.27-5.81.56-8.72.63-4,.1-7.94.08-11.91,0-2.44-.06-4.87-.36-7.3-.59a4.14,4.14,0,0,1-1.16-.37,3.28,3.28,0,0,1-2.19-4.07,76.73,76.73,0,0,1,5-15c.19-.39.43-.74.61-1.13,1.14-2.49,3.36-3.18,5.8-3.55a83,83,0,0,1,12.39-.62h1.67Zm-5.63,18.83h5.86c1.78,0,3.17-.63,3.77-2.46.81-2.5,1.65-5,2.41-7.52.49-1.62.3-1.87-1.38-2.25l-.13,0a55.62,55.62,0,0,0-13.15-.23,4.42,4.42,0,0,0-4.23,3.31c-.68,2.25-1.52,4.45-2.28,6.69a1.36,1.36,0,0,0,.74,1.88,6.65,6.65,0,0,0,2.33.58C601.46,937.27,603.48,937.22,605.5,937.22Z" transform="translate(-18.54 -21.14)"/><path class="cls-39" d="M639.53,909.57H593.59a10.44,10.44,0,0,0-3.93.82c-3.37,1.34-5.63,3.88-7.59,6.79a34,34,0,0,0-4,8.76c-1.87,5.81-3.76,11.62-5.53,17.46a40.3,40.3,0,0,0-.88,5.12c0,.08,0,.16-.23.29a2.71,2.71,0,0,1-.19-.51,17,17,0,0,1,.55-7.32,223.52,223.52,0,0,1,7.32-23c.85-2.14,2-4.16,2.88-6.31a4.12,4.12,0,0,1,2.71-2.31,12.18,12.18,0,0,1,6.22-.85,33.2,33.2,0,0,0,4.49.24l40.38,0a20.61,20.61,0,0,1,2.75.27,4.87,4.87,0,0,1,1,.35Z" transform="translate(-18.54 -21.14)"/><path class="cls-39" d="M631.65,919.5c.07.63.18,1.26.2,1.89a37,37,0,0,1-3.29,16.12c-.84,2-1.9,3.83-2.91,5.72a6.33,6.33,0,0,1-4,3,29,29,0,0,1-8,1.23q-9.65.17-19.31.11a30.66,30.66,0,0,1-7.59-.86c-.4-.1-.78-.26-1.17-.39l0-.21c.76.09,1.53.19,2.29.25,2,.15,3.93.37,5.9.4,4.91.06,9.83,0,14.75,0a26.49,26.49,0,0,0,7.89-1,7.5,7.5,0,0,0,4.65-3.31.88.88,0,0,1,.31-.31c3.52-2,5.57-5.17,6.87-8.91.91-2.61,2.17-5.1,2.58-7.86.27-1.82.39-3.66.58-5.49,0-.15,0-.29,0-.44Z" transform="translate(-18.54 -21.14)"/><path class="cls-39" d="M427.6,909.18c.13.47,0,.68-.38.7-.64,0-1.28.13-1.92.13H392.13c-1.76,0-3.52,0-5.28.12a40,40,0,0,0-9.72,1.28,17.1,17.1,0,0,0-10.37,8.12,60.74,60.74,0,0,0-2.78,6.36A105.43,105.43,0,0,0,358.45,942c-.45,2-.63,4-.92,5.89a3,3,0,0,1-.21-.58,16.59,16.59,0,0,1,.2-6c1.14-6.63,3.42-12.92,5.81-19.16.92-2.4,1.79-4.83,2.93-7.13a8.15,8.15,0,0,1,6.15-4.8,36.29,36.29,0,0,1,4.34-.54c5.17-.2,10.33-.42,15.5-.45,11.51-.07,23,0,34.52,0Z" transform="translate(-18.54 -21.14)"/><path class="cls-39" d="M415.16,947.25v.55s-.08.08-.11.09a13.06,13.06,0,0,1-1.78.23c-9.83,0-19.67,0-29.5,0a52.71,52.71,0,0,1-10.82-.87c-.58-.12-1.16-.32-1.73-.49a.77.77,0,0,1-.48-.39c.92.14,1.84.32,2.77.4,2,.19,4,.45,6,.46,11.62,0,23.23,0,34.85,0Z" transform="translate(-18.54 -21.14)"/><path class="cls-39" d="M587.18,887.57c-1.07.12-2.15.29-3.22.34-1.5.06-3,0-4.51,0a1.63,1.63,0,0,0-1.21.45q-9.6,8.58-19.22,17.13-10.17,9.05-20.32,18.12c-.86.77-1.54,1.73-2.36,2.54a9,9,0,0,1-6.77,2.92,16.18,16.18,0,0,1-2.22-.34c-.14,0-.26-.16-.4-.24a1.54,1.54,0,0,1,.43-.27c.33-.07.68-.07,1-.14a4.66,4.66,0,0,0,3.23-2.15,11.58,11.58,0,0,1,2.34-2.62l33.43-30c2.06-1.85,4.09-3.73,6.17-5.56a11.35,11.35,0,0,1,2-1.35,1.46,1.46,0,0,1,1.09-.11,14.1,14.1,0,0,0,5.56.8c1.46-.06,2.92,0,4.38,0a3.23,3.23,0,0,1,.66.14Z" transform="translate(-18.54 -21.14)"/><path class="cls-39" d="M515.31,953c1-3,2.06-6,3.09-8.94.35-1,.72-2,1.08-3a7.34,7.34,0,0,0,.55-3.26c0-.21,0-.42,0-.63l.23-.06a3.27,3.27,0,0,1,.17.49c.54,2.93-.19,5.69-1.15,8.43-.5,1.43-.84,2.92-1.33,4.36a12.29,12.29,0,0,1-1,2.27C516.5,953.4,516.24,953.43,515.31,953Z" transform="translate(-18.54 -21.14)"/><path class="cls-39" d="M460.49,931.64H449.35a3.66,3.66,0,0,1-.51,0c-.57-.08-.83-.43-.66-1,.58-1.84,1.19-3.66,1.76-5.51.26-.84.39-1.72.68-2.54a14.27,14.27,0,0,1,1.08-2.32,1.85,1.85,0,0,1,1.74-.89c7.9,0,15.8,0,23.7,0a13.31,13.31,0,0,1,3.49.47c1.76.49,1.91,1.41,1.59,2.79a38.2,38.2,0,0,1-1.61,5,9.65,9.65,0,0,1-1.37,2.23,1.69,1.69,0,0,1-1,.54,41.1,41.1,0,0,1-4.95.77c-4.26.24-8.53.35-12.79.51Z" transform="translate(-18.54 -21.14)"/><path class="cls-39" d="M441,907.79a5.43,5.43,0,0,1,.78.3,7.42,7.42,0,0,1,.78.56,3.79,3.79,0,0,0,2.39.76q19.58,0,39.16,0a31.88,31.88,0,0,1,8.9,1.15,4.25,4.25,0,0,1,.63.3l-.09.23c-.55-.11-1.1-.27-1.65-.33a39.54,39.54,0,0,0-4.54-.46c-14.47,0-28.94,0-43.41,0a.77.77,0,0,0-.89.64q-5.76,17.62-11.57,35.24c-.37,1.12-.79,2.22-1.12,3.35-.24.84-.38,1.7-.56,2.56s-.68,1.51-1.42,1.62-.9-.16-.69-.81q4.12-12.55,8.23-25.1c1.81-5.56,3.59-11.13,5.39-16.7a1.57,1.57,0,0,0-.07-1.33,8.53,8.53,0,0,1-.48-1.75Z" transform="translate(-18.54 -21.14)"/><path class="cls-39" d="M485.76,919.67a5.35,5.35,0,0,1,.49,2.88,25.32,25.32,0,0,1-2.18,8.35,18.62,18.62,0,0,1-1,1.62c-1.26,2.17-3.51,2.23-5.55,2.44-3.58.36-7.18.57-10.78.64-4.89.1-9.78.06-14.68,0-1.69,0-3.38-.22-5.06-.36-.17,0-.34-.17-.5-.27.17-.12.34-.33.52-.34.38,0,.76.1,1.14.1,7.42,0,14.85,0,22.27,0a14.92,14.92,0,0,0,5.91-1.05,5.53,5.53,0,0,0,2.54-2.18,8.38,8.38,0,0,1,1.7-1.53.86.86,0,0,1,.21-.14,6.84,6.84,0,0,0,3.25-3.49,11,11,0,0,0,1.61-5.55c0-.32,0-.64,0-1C485.65,919.81,485.69,919.78,485.76,919.67Z" transform="translate(-18.54 -21.14)"/><path class="cls-50" d="M605.5,937.22c-2,0-4,.05-6,0a6.65,6.65,0,0,1-2.33-.58,1.36,1.36,0,0,1-.74-1.88c.75-2.23,1.6-4.43,2.28-6.69a4.42,4.42,0,0,1,4.23-3.31A55.62,55.62,0,0,1,616,925l.13,0c1.68.38,1.87.62,1.38,2.25-.76,2.52-1.6,5-2.41,7.52-.59,1.83-2,2.46-3.77,2.46ZM600,933.09c.87.39,1.16.34,1.56-.42a8.07,8.07,0,0,0,.86-2.2,1.76,1.76,0,0,1,1.63-1.52,26,26,0,0,1,7-.32,6.56,6.56,0,0,0,1.32-.08.38.38,0,0,0,.23-.3.43.43,0,0,0-.23-.33,2.25,2.25,0,0,0-.63-.07c-2.08-.07-4.16-.06-6.23-.22a26,26,0,0,1-3.7-.71c-.35-.08-.6-.38-1,0s-.28.66-.18,1a4.72,4.72,0,0,1-.09,3A19.68,19.68,0,0,0,600,933.09Z" transform="translate(-18.54 -21.14)"/><path class="cls-39" d="M600,933.09a19.68,19.68,0,0,1,.55-2.15,4.72,4.72,0,0,0,.09-3c-.1-.36-.23-.68.18-1s.67-.05,1,0a26,26,0,0,0,3.7.71c2.07.16,4.15.16,6.23.22a2.25,2.25,0,0,1,.63.07.43.43,0,0,1,.23.33.38.38,0,0,1-.23.3,6.56,6.56,0,0,1-1.32.08,26,26,0,0,0-7,.32,1.76,1.76,0,0,0-1.63,1.52,8.07,8.07,0,0,1-.86,2.2C601.18,933.44,600.89,933.48,600,933.09Z" transform="translate(-18.54 -21.14)"/><path class="cls-51" d="M313,917.26c-.11.84-.2,1.69-.33,2.53A73.73,73.73,0,0,1,309.43,932c-1.77,5.17-3.56,10.33-5.55,15.42a22.4,22.4,0,0,1-6.08,8.75,16.13,16.13,0,0,1-8.87,3.72,141.79,141.79,0,0,1-17.27,1c-5.09,0-10.17,0-15.26,0a115.61,115.61,0,0,1-14.88-1c-.76-.11-1.52-.28-2.27-.43-2.91-.56-4.12-2.71-4.84-5.25a13.38,13.38,0,0,1,.17-6.62,160,160,0,0,1,5.18-17.29c1-2.84,1.9-5.7,3.06-8.46a24,24,0,0,1,6.61-9.31,15.3,15.3,0,0,1,10.12-3.67q22.16,0,44.31,0a14.51,14.51,0,0,1,3.06.32,7.06,7.06,0,0,1,5.79,6.06l.26,1.36Zm-35.28,4.64v-.11H276a83,83,0,0,0-12.39.62c-2.44.37-4.66,1.06-5.8,3.55-.18.39-.42.75-.61,1.13a76.73,76.73,0,0,0-5,15,3.28,3.28,0,0,0,2.19,4.07,4.14,4.14,0,0,0,1.16.37c2.43.23,4.86.53,7.3.59,4,.1,7.94.12,11.91,0,2.91-.08,5.82-.36,8.72-.63a6.79,6.79,0,0,0,5.78-3.6,41.59,41.59,0,0,0,3-7,39.14,39.14,0,0,0,2.28-9.93c.11-1.91-.6-3.07-2.46-3.51a19.61,19.61,0,0,0-4.07-.52C284.6,921.85,281.14,921.9,277.69,921.9Zm28.39-8.83,0-.21a4.87,4.87,0,0,0-1-.35,20.61,20.61,0,0,0-2.75-.27l-40.38,0a33.2,33.2,0,0,1-4.49-.24,12.18,12.18,0,0,0-6.22.85,4.12,4.12,0,0,0-2.71,2.31c-.85,2.15-2,4.16-2.88,6.31a223.52,223.52,0,0,0-7.32,23,17,17,0,0,0-.55,7.32,2.71,2.71,0,0,0,.19.51c.19-.13.22-.21.23-.29a40.3,40.3,0,0,1,.88-5.12c1.77-5.84,3.66-11.65,5.53-17.46a34,34,0,0,1,4-8.76c2-2.91,4.22-5.45,7.59-6.79a10.44,10.44,0,0,1,3.93-.82h45.93ZM298.2,923H298c0,.15,0,.29,0,.44-.19,1.83-.31,3.67-.58,5.49-.41,2.76-1.67,5.26-2.58,7.86-1.3,3.74-3.34,6.89-6.87,8.91a.88.88,0,0,0-.31.31,7.5,7.5,0,0,1-4.65,3.31,26.49,26.49,0,0,1-7.89,1c-4.92,0-9.83,0-14.75,0-2,0-3.94-.25-5.9-.4-.77-.06-1.53-.17-2.29-.25l0,.21c.39.13.77.29,1.17.39a30.66,30.66,0,0,0,7.59.86q9.66,0,19.31-.11a29,29,0,0,0,8-1.23,6.33,6.33,0,0,0,4-3c1-1.89,2.07-3.76,2.91-5.72a37,37,0,0,0,3.29-16.12C298.38,924.27,298.27,923.64,298.2,923Z" transform="translate(-18.54 -21.14)"/><path class="cls-52" d="M20.14,948.44c.19-1,.37-2,.58-3.07a105.25,105.25,0,0,1,4.91-15.82c1-2.66,2-5.37,3.23-7.91A20.22,20.22,0,0,1,41.29,911a26.42,26.42,0,0,1,6.2-1c4.67-.29,9.34-.51,14-.55,12.13-.1,24.26-.08,36.38-.1a2.64,2.64,0,0,1,1.11.25.77.77,0,0,1,.49,1c-1.25,3.63-2.5,7.25-3.68,10.9a1.55,1.55,0,0,1-1.68,1.21h-.64c-11.76,0-23.53,0-35.29,0a63.85,63.85,0,0,0-10,.7,6.41,6.41,0,0,0-4.62,3,36.46,36.46,0,0,0-3.69,8,51.82,51.82,0,0,0-1.55,5,25.47,25.47,0,0,0-.61,4.44c-.09,1.73,1.06,2.66,3.1,3a70.31,70.31,0,0,0,11.85.7c11,0,22,0,33,0a6,6,0,0,1,.64,0,.74.74,0,0,1,.67,1c-1.21,3.71-2.4,7.42-3.66,11.11-.47,1.39-.72,1.48-2.18,1.48-12.49,0-25,0-37.48,0a76.43,76.43,0,0,1-15.11-1.28c-1-.2-1.95-.51-2.92-.77-3-.81-4.51-2.93-5.26-5.77-.08-.31-.17-.61-.26-.92Zm74-35.75h-.84c-11.51,0-23,0-34.52,0-5.17,0-10.34.25-15.5.45a36.29,36.29,0,0,0-4.34.54,8.15,8.15,0,0,0-6.15,4.8c-1.13,2.3-2,4.73-2.93,7.13-2.39,6.25-4.66,12.54-5.81,19.16a16.59,16.59,0,0,0-.2,6,3,3,0,0,0,.21.58c.29-1.93.47-3.94.92-5.89a105.43,105.43,0,0,1,5.53-16.09A60.74,60.74,0,0,1,33.31,923a17.1,17.1,0,0,1,10.37-8.12,40,40,0,0,1,9.72-1.28c1.75-.11,3.52-.11,5.28-.12H91.85c.64,0,1.28-.1,1.92-.13C94.2,913.37,94.28,913.16,94.16,912.69ZM81.72,950.76h-.84c-11.62,0-23.23,0-34.85,0-2,0-4-.28-6-.46-.93-.09-1.84-.27-2.77-.4a.77.77,0,0,0,.48.39c.57.18,1.14.37,1.73.49a52.71,52.71,0,0,0,10.82.87c9.83,0,19.67,0,29.5,0a13.06,13.06,0,0,0,1.78-.23s.06,0,.11-.09Z" transform="translate(-18.54 -21.14)"/><path class="cls-53" d="M263.37,887.5a2.63,2.63,0,0,1-.41.73c-5.37,4.77-10.71,9.59-16.15,14.28q-23,19.83-46,39.58a2.26,2.26,0,0,0-.64.93q-2,5.89-4,11.81c-.5,1.5-1,3-1.45,4.53-.29,1-.52,1.29-1.82,1.3-3.48,0-7,0-10.43,0H179c-.94,0-1.09-.17-.83-1.12.36-1.32.74-2.64,1.16-3.95q1.92-5.93,3.88-11.85a1.94,1.94,0,0,0,0-1.42,76.1,76.1,0,0,0-4.72-9.06c-4.17-7.44-8.27-14.92-12.39-22.39-.19-.35-.33-.73-.49-1.09l.14-.19a4.55,4.55,0,0,1,1,.39c1.35.94,2.67,1.94,4,2.88a2.45,2.45,0,0,0,2.25.42,2.73,2.73,0,0,1,.83,0h9.13c-.18-.56-.58-.65-1-.65-2.3,0-4.6-.08-6.89,0a10,10,0,0,1-6.36-2c-.51-.36-1-.75-1.5-1.13l.08-.17.67,0c5.8,0,11.59,0,17.39,0a.91.91,0,0,1,1,.62q4.22,8.53,8.5,17c.28.55.64,1.06.95,1.61a.51.51,0,0,0,.8.22,10.42,10.42,0,0,0,1.53-1.06c1.66-1.52,3.25-3.12,4.93-4.62q19.33-17.3,38.69-34.57c.35-.31.67-.64,1-1Zm-9.64,3.58,0-.36a3.23,3.23,0,0,0-.66-.14c-1.46,0-2.92-.05-4.38,0a14.1,14.1,0,0,1-5.56-.8,1.46,1.46,0,0,0-1.09.11,11.35,11.35,0,0,0-2,1.35C238,893.08,236,895,234,896.81l-33.43,30a11.58,11.58,0,0,0-2.34,2.62,4.66,4.66,0,0,1-3.23,2.15c-.33.07-.68.07-1,.14a1.54,1.54,0,0,0-.43.27c.13.08.25.22.4.24a16.18,16.18,0,0,0,2.22.34,9,9,0,0,0,6.77-2.92c.82-.81,1.51-1.77,2.36-2.54Q215.39,918,225.57,909q9.61-8.56,19.22-17.13a1.63,1.63,0,0,1,1.21-.45c1.5,0,3,.05,4.51,0C251.58,891.38,252.66,891.2,253.73,891.08Zm-71.87,65.47c.93.39,1.19.36,1.62-.37a12.29,12.29,0,0,0,1-2.27c.48-1.44.82-2.93,1.33-4.36,1-2.74,1.69-5.49,1.15-8.43a3.27,3.27,0,0,0-.17-.49l-.23.06c0,.21,0,.42,0,.63a7.34,7.34,0,0,1-.55,3.26c-.37,1-.73,2-1.08,3C183.93,950.58,182.9,953.55,181.87,956.55Z" transform="translate(-18.54 -21.14)"/><path class="cls-54" d="M153.41,941l.6.33a6.33,6.33,0,0,1,3.71,5.13c.33,2.31.75,4.61,1.11,6.91q1.44,9.31,2.87,18.63c.1.63-.38.73-.79.87a1.41,1.41,0,0,1-.45,0c-4.87,0-9.75,0-14.62,0-.68,0-1.08-.22-1.24-.84-.57-2.15-1.23-4.29-1.64-6.47-.94-5-1.77-10-2.58-15.09-.19-1.16-.62-1.9-1.86-2-.55,0-1.1-.21-1.65-.21-8.39,0-16.79,0-25.18,0a2,2,0,0,0-2.1,1.43c-.45,1.29-.75,2.63-1.19,3.93-.72,2.11-1.52,4.19-2.23,6.3a1.73,1.73,0,0,1-1.86,1.24H91.15c-.68,0-1-.52-.76-1.29.55-1.8,1.1-3.61,1.68-5.4q7-21.62,14-43.24c.39-1.21.78-1.49,2-1.49q19.26,0,38.52,0c1.78,0,3.56-.19,5.34-.17a31.19,31.19,0,0,1,4.48.36c2.22.35,4.43.78,6.61,1.31a4.06,4.06,0,0,1,2.12,1.23,7.16,7.16,0,0,1,1.49,3.13,18.72,18.72,0,0,1-.87,8.87,58,58,0,0,1-4.13,10.24,12.32,12.32,0,0,1-7.35,6ZM127,935.15v.11c4.26-.16,8.53-.27,12.79-.51a41.1,41.1,0,0,0,4.95-.77,1.69,1.69,0,0,0,1-.54,9.65,9.65,0,0,0,1.37-2.23,38.2,38.2,0,0,0,1.61-5c.32-1.37.17-2.29-1.59-2.79a13.31,13.31,0,0,0-3.49-.47c-7.9,0-15.8,0-23.7,0a1.85,1.85,0,0,0-1.74.89,14.27,14.27,0,0,0-1.08,2.32c-.29.82-.42,1.7-.68,2.54-.57,1.84-1.18,3.67-1.76,5.51-.17.53.09.88.66,1a3.66,3.66,0,0,0,.51,0ZM107.59,911.3l-.22.19a8.53,8.53,0,0,0,.48,1.75,1.57,1.57,0,0,1,.07,1.33c-1.8,5.56-3.57,11.14-5.39,16.7q-4.1,12.56-8.23,25.1c-.21.65,0,.9.69.81s1.23-.66,1.42-1.62.32-1.72.56-2.56c.33-1.13.75-2.23,1.12-3.35q5.79-17.62,11.57-35.24a.77.77,0,0,1,.89-.64c14.47,0,28.94,0,43.41,0a39.54,39.54,0,0,1,4.54.46c.56.07,1.1.22,1.65.33l.09-.23a4.25,4.25,0,0,0-.63-.3,31.88,31.88,0,0,0-8.9-1.15q-19.58,0-39.16,0a3.79,3.79,0,0,1-2.39-.76,7.42,7.42,0,0,0-.78-.56A5.43,5.43,0,0,0,107.59,911.3Zm44.73,11.88c-.08.11-.11.14-.11.17,0,.32,0,.64,0,1a11,11,0,0,1-1.61,5.55,6.84,6.84,0,0,1-3.25,3.49.86.86,0,0,0-.21.14,8.38,8.38,0,0,0-1.7,1.53,5.53,5.53,0,0,1-2.54,2.18,14.92,14.92,0,0,1-5.91,1.05c-7.42,0-14.85,0-22.27,0-.38,0-.76-.12-1.14-.1-.18,0-.35.22-.52.34.17.09.33.25.5.27,1.69.14,3.37.34,5.06.36,4.89,0,9.79.09,14.68,0,3.6-.08,7.2-.28,10.78-.64,2-.21,4.3-.27,5.55-2.44a18.62,18.62,0,0,0,1-1.62,25.32,25.32,0,0,0,2.18-8.35A5.35,5.35,0,0,0,152.32,923.18Z" transform="translate(-18.54 -21.14)"/><path class="cls-39" d="M277.69,921.9c3.45,0,6.91,0,10.36,0a19.61,19.61,0,0,1,4.07.52c1.86.44,2.56,1.6,2.46,3.51a39.14,39.14,0,0,1-2.28,9.93,41.59,41.59,0,0,1-3,7,6.79,6.79,0,0,1-5.78,3.6c-2.9.27-5.81.56-8.72.63-4,.1-7.94.08-11.91,0-2.44-.06-4.87-.36-7.3-.59a4.14,4.14,0,0,1-1.16-.37,3.28,3.28,0,0,1-2.19-4.07,76.73,76.73,0,0,1,5-15c.19-.39.43-.74.61-1.13,1.14-2.49,3.36-3.18,5.8-3.55a83,83,0,0,1,12.39-.62h1.67Zm-5.63,18.83h5.86c1.78,0,3.17-.63,3.77-2.46.81-2.5,1.65-5,2.41-7.52.49-1.62.3-1.87-1.38-2.25l-.13,0a55.62,55.62,0,0,0-13.15-.23,4.42,4.42,0,0,0-4.23,3.31c-.68,2.25-1.52,4.45-2.28,6.69a1.36,1.36,0,0,0,.74,1.88,6.65,6.65,0,0,0,2.33.58C268,940.79,270,940.73,272.05,940.73Z" transform="translate(-18.54 -21.14)"/><path class="cls-39" d="M306.08,913.08H260.15a10.44,10.44,0,0,0-3.93.82c-3.37,1.34-5.63,3.88-7.59,6.79a34,34,0,0,0-4,8.76c-1.87,5.81-3.76,11.62-5.53,17.46a40.3,40.3,0,0,0-.88,5.12c0,.08,0,.16-.23.29a2.71,2.71,0,0,1-.19-.51,17,17,0,0,1,.55-7.32,223.52,223.52,0,0,1,7.32-23c.85-2.14,2-4.16,2.88-6.31a4.12,4.12,0,0,1,2.71-2.31,12.18,12.18,0,0,1,6.22-.85,33.2,33.2,0,0,0,4.49.24l40.38,0a20.61,20.61,0,0,1,2.75.27,4.87,4.87,0,0,1,1,.35Z" transform="translate(-18.54 -21.14)"/><path class="cls-39" d="M298.2,923c.07.63.18,1.26.2,1.89A37,37,0,0,1,295.11,941c-.84,2-1.9,3.83-2.91,5.72a6.33,6.33,0,0,1-4,3,29,29,0,0,1-8,1.23q-9.65.17-19.31.11a30.66,30.66,0,0,1-7.59-.86c-.4-.1-.78-.26-1.17-.39l0-.21c.76.09,1.53.19,2.29.25,2,.15,3.93.37,5.9.4,4.91.06,9.83,0,14.75,0a26.49,26.49,0,0,0,7.89-1,7.5,7.5,0,0,0,4.65-3.31.88.88,0,0,1,.31-.31c3.52-2,5.57-5.17,6.87-8.91.91-2.61,2.17-5.1,2.58-7.86.27-1.82.39-3.66.58-5.49,0-.15,0-.29,0-.44Z" transform="translate(-18.54 -21.14)"/><path class="cls-39" d="M94.16,912.69c.13.47,0,.68-.38.7-.64,0-1.28.13-1.92.13H58.68c-1.76,0-3.52,0-5.28.12a40,40,0,0,0-9.72,1.28A17.1,17.1,0,0,0,33.31,923a60.74,60.74,0,0,0-2.78,6.36A105.43,105.43,0,0,0,25,945.49c-.45,2-.63,4-.92,5.89a3,3,0,0,1-.21-.58,16.59,16.59,0,0,1,.2-6c1.14-6.63,3.42-12.92,5.81-19.16.92-2.4,1.79-4.83,2.93-7.13A8.15,8.15,0,0,1,39,913.7a36.29,36.29,0,0,1,4.34-.54c5.17-.2,10.33-.42,15.5-.45,11.51-.07,23,0,34.52,0Z" transform="translate(-18.54 -21.14)"/><path class="cls-39" d="M81.72,950.76v.55s-.08.08-.11.09a13.06,13.06,0,0,1-1.78.23c-9.83,0-19.67,0-29.5,0a52.71,52.71,0,0,1-10.82-.87c-.58-.12-1.16-.32-1.73-.49a.77.77,0,0,1-.48-.39c.92.14,1.84.32,2.77.4,2,.19,4,.45,6,.46,11.62,0,23.23,0,34.85,0Z" transform="translate(-18.54 -21.14)"/><path class="cls-39" d="M253.73,891.08c-1.07.12-2.15.29-3.22.34-1.5.06-3,0-4.51,0a1.63,1.63,0,0,0-1.21.45q-9.6,8.58-19.22,17.13-10.17,9.05-20.32,18.12c-.86.77-1.54,1.73-2.36,2.54a9,9,0,0,1-6.77,2.92,16.18,16.18,0,0,1-2.22-.34c-.14,0-.26-.16-.4-.24a1.54,1.54,0,0,1,.43-.27c.33-.07.68-.07,1-.14a4.66,4.66,0,0,0,3.23-2.15,11.58,11.58,0,0,1,2.34-2.62l33.43-30c2.06-1.85,4.09-3.73,6.17-5.56a11.35,11.35,0,0,1,2-1.35,1.46,1.46,0,0,1,1.09-.11,14.1,14.1,0,0,0,5.56.8c1.46-.06,2.92,0,4.38,0a3.23,3.23,0,0,1,.66.14Z" transform="translate(-18.54 -21.14)"/><path class="cls-39" d="M181.87,956.55c1-3,2.06-6,3.09-8.94.35-1,.72-2,1.08-3a7.34,7.34,0,0,0,.55-3.26c0-.21,0-.42,0-.63l.23-.06a3.27,3.27,0,0,1,.17.49c.54,2.93-.19,5.69-1.15,8.43-.5,1.43-.84,2.92-1.33,4.36a12.29,12.29,0,0,1-1,2.27C183.06,956.91,182.79,956.94,181.87,956.55Z" transform="translate(-18.54 -21.14)"/><path class="cls-39" d="M127,935.15H115.9a3.66,3.66,0,0,1-.51,0c-.57-.08-.83-.43-.66-1,.58-1.84,1.19-3.66,1.76-5.51.26-.84.39-1.72.68-2.54a14.27,14.27,0,0,1,1.08-2.32,1.85,1.85,0,0,1,1.74-.89c7.9,0,15.8,0,23.7,0a13.31,13.31,0,0,1,3.49.47c1.76.49,1.91,1.41,1.59,2.79a38.2,38.2,0,0,1-1.61,5,9.65,9.65,0,0,1-1.37,2.23,1.69,1.69,0,0,1-1,.54,41.1,41.1,0,0,1-4.95.77c-4.26.24-8.53.35-12.79.51Z" transform="translate(-18.54 -21.14)"/><path class="cls-39" d="M107.59,911.3a5.43,5.43,0,0,1,.78.3,7.42,7.42,0,0,1,.78.56,3.79,3.79,0,0,0,2.39.76q19.58,0,39.16,0a31.88,31.88,0,0,1,8.9,1.15,4.25,4.25,0,0,1,.63.3l-.09.23c-.55-.11-1.1-.27-1.65-.33a39.54,39.54,0,0,0-4.54-.46c-14.47,0-28.94,0-43.41,0a.77.77,0,0,0-.89.64Q103.9,932,98.1,949.65c-.37,1.12-.79,2.22-1.12,3.35-.24.84-.38,1.7-.56,2.56s-.68,1.51-1.42,1.62-.9-.16-.69-.81q4.12-12.55,8.23-25.1c1.81-5.56,3.59-11.13,5.39-16.7a1.57,1.57,0,0,0-.07-1.33,8.53,8.53,0,0,1-.48-1.75Z" transform="translate(-18.54 -21.14)"/><path class="cls-39" d="M152.32,923.18a5.35,5.35,0,0,1,.49,2.88,25.32,25.32,0,0,1-2.18,8.35,18.62,18.62,0,0,1-1,1.62c-1.26,2.17-3.51,2.23-5.55,2.44-3.58.36-7.18.57-10.78.64-4.89.1-9.78.06-14.68,0-1.69,0-3.38-.22-5.06-.36-.17,0-.34-.17-.5-.27.17-.12.34-.33.52-.34.38,0,.76.1,1.14.1,7.42,0,14.85,0,22.27,0a14.92,14.92,0,0,0,5.91-1.05,5.53,5.53,0,0,0,2.54-2.18,8.38,8.38,0,0,1,1.7-1.53.86.86,0,0,1,.21-.14,6.84,6.84,0,0,0,3.25-3.49,11,11,0,0,0,1.61-5.55c0-.32,0-.64,0-1C152.2,923.32,152.24,923.29,152.32,923.18Z" transform="translate(-18.54 -21.14)"/><path class="cls-55" d="M272.05,940.73c-2,0-4,.05-6,0a6.65,6.65,0,0,1-2.33-.58,1.36,1.36,0,0,1-.74-1.88c.75-2.23,1.6-4.43,2.28-6.69a4.42,4.42,0,0,1,4.23-3.31,55.62,55.62,0,0,1,13.15.23l.13,0c1.68.38,1.87.62,1.38,2.25-.76,2.52-1.6,5-2.41,7.52-.59,1.83-2,2.46-3.77,2.46Zm-5.48-4.13c.87.39,1.16.34,1.56-.42A8.07,8.07,0,0,0,269,934a1.76,1.76,0,0,1,1.63-1.52,26,26,0,0,1,7-.32,6.56,6.56,0,0,0,1.32-.08.38.38,0,0,0,.23-.3.43.43,0,0,0-.23-.33,2.25,2.25,0,0,0-.63-.07c-2.08-.07-4.16-.06-6.23-.22a26,26,0,0,1-3.7-.71c-.35-.08-.6-.38-1,0s-.28.66-.18,1a4.72,4.72,0,0,1-.09,3A19.68,19.68,0,0,0,266.58,936.61Z" transform="translate(-18.54 -21.14)"/><path class="cls-39" d="M266.58,936.61a19.68,19.68,0,0,1,.55-2.15,4.72,4.72,0,0,0,.09-3c-.1-.36-.23-.68.18-1s.67-.05,1,0a26,26,0,0,0,3.7.71c2.07.16,4.15.16,6.23.22a2.25,2.25,0,0,1,.63.07.43.43,0,0,1,.23.33.38.38,0,0,1-.23.3,6.56,6.56,0,0,1-1.32.08,26,26,0,0,0-7,.32A1.76,1.76,0,0,0,269,934a8.07,8.07,0,0,1-.86,2.2C267.74,937,267.45,937,266.58,936.61Z" transform="translate(-18.54 -21.14)"/></svg>